<svg width="54" height="68" viewBox="0 0 54 68" fill="none" xmlns="http://www.w3.org/2000/svg">
    <path d="M53.3333 20.3723C53.2376 17.6896 53.4613 14.7026 53.3333 12.0503C53.2054 9.39804 53.6197 6.33592 53.2421 3.81966C52.8636 1.30428 50.6811 0.684164 48.5209 0.218851C46.3608 -0.246462 43.1484 0.128473 40.9149 0.43719C38.6814 0.745907 36.3324 1.37229 34.2457 2.08995C32.1598 2.8085 30.4364 3.63353 28.457 4.53373C30.2485 4.19459 31.9952 3.60668 33.9092 3.18522C35.8233 2.76375 37.885 2.36287 39.9109 2.20717C41.9368 2.05147 44.4772 2.07384 46.3823 2.53647C48.2874 2.9982 49.4712 4.36461 49.4856 6.3234C48.3957 6.34487 47.3594 6.29476 46.2642 6.3234C45.1689 6.35203 44.1604 6.26792 43.0455 6.32608C41.9296 6.38335 42.2661 7.87951 42.2374 8.64996C40.9847 8.64996 39.7319 8.64996 38.4791 8.64996C38.5355 7.71218 38.7189 6.27687 37.4948 6.3234C36.2707 6.36993 35.3642 6.29655 34.1839 6.3234C33.0036 6.35024 32.0605 6.29924 30.8739 6.32429C29.6874 6.34935 29.9836 7.80971 29.9782 8.64996C28.7255 8.64996 27.4727 8.64996 26.2199 8.64996C26.4571 7.57795 26.2342 6.09879 24.9672 6.3234C23.7001 6.548 22.5287 6.09163 21.3878 6.3234C20.2469 6.55516 18.9208 5.84019 18.0098 6.52473C17.0989 7.20839 18.0778 8.82266 17.719 9.81324C17.3602 10.8038 18.2577 11.6181 18.7239 12.3877C19.1901 13.1572 19.8093 13.6038 20.2013 14.4896C20.5941 15.3746 20.1843 16.8815 20.314 17.9562C20.4438 19.0309 20.1977 20.323 20.2246 21.4461C20.2514 22.5691 20.2058 23.8746 20.2246 25.0254C20.2433 26.1761 20.0662 27.3466 20.1351 28.5152C16.1728 29.181 11.4409 29.7769 7.94298 27.3743C4.44419 24.9717 6.75912 20.2085 8.79307 17.6207C10.8261 15.0328 13.3263 12.513 15.8399 10.3501C14.9048 10.8584 13.8748 11.4365 12.9988 12.0727C12.1218 12.708 11.2288 13.261 10.4038 13.9518C9.57873 14.6418 8.72685 15.2279 7.94298 15.9652C7.15911 16.7026 6.43519 17.4256 5.75064 18.247C5.0652 19.0685 4.33054 19.7942 3.73727 20.7078C3.14489 21.6214 2.53103 22.4644 2.05319 23.4979C1.57535 24.5305 1.19863 25.9802 1.25411 27.173C1.30959 28.3658 1.70779 29.4548 2.66347 30.2378C3.62004 31.0208 4.60257 31.351 5.81149 31.6534C7.01951 31.9568 8.49777 32.1447 9.8445 32.0946C11.1912 32.0445 12.8458 32.1831 14.1334 31.9093C15.4202 31.6355 16.7195 31.5487 17.9812 31.2829C19.242 31.0163 20.289 30.6315 21.5471 30.3747C22.8044 30.1179 23.5345 29.7537 24.4079 28.7613C25.2812 27.768 24.0419 26.8598 24.3426 25.6536C24.6441 24.4473 25.3331 23.8004 25.9246 22.7615C26.5152 21.7217 26.8042 20.5459 27.0253 19.3879C27.7161 20.3893 27.7143 21.9382 27.8306 23.2357C27.947 24.5332 27.827 26.0428 27.0942 27.0629C26.3613 28.083 25.215 28.0616 24.7882 29.3206C25.4361 29.1658 25.8369 28.9018 26.4866 28.6924C27.1353 28.4821 27.5631 28.4213 27.8924 27.7716C28.2226 27.1229 27.8718 26.8052 28.1214 26.1216C28.3711 25.4379 29.5684 26.1627 29.0628 26.705C28.5572 27.2473 28.3308 27.3242 28.1886 28.0678C29.036 27.6768 29.5013 27.6016 30.0901 26.8374C30.678 26.0723 30.5849 25.7735 30.0972 24.9959C29.6095 24.2183 30.4015 23.1928 30.7147 22.5404C31.027 21.8881 31.4976 21.2215 31.6847 20.468C31.8726 19.7155 32.1366 18.758 32.2153 17.9562C32.9034 18.8036 32.9374 20.1521 33.1996 21.2671C33.4618 22.3821 33.188 23.7816 32.6421 24.7364C32.0963 25.6911 30.9258 25.7967 30.6046 26.9045C31.1003 26.6844 31.6632 26.4965 32.1187 26.1815C32.575 25.8674 33.077 25.8093 33.4904 25.4057C33.903 25.0012 34.0345 24.4151 33.8269 23.863C33.6193 23.31 34.8586 22.816 34.8103 23.5937C34.762 24.3704 34.1231 24.2531 34.0944 25.0254C34.7486 24.6648 35.5512 24.3158 35.9065 23.616C36.2608 22.9154 36.949 22.2675 36.3986 21.5579C35.8492 20.8474 36.1651 19.7557 36.5177 19.0372C36.8693 18.3177 37.1995 17.6654 37.4966 16.8842C37.7937 16.1039 37.6416 14.9612 37.9422 14.1979C38.4353 15.2136 38.6599 16.2328 38.9283 17.328C39.1977 18.4224 39.1628 19.8354 38.6849 20.8465C38.2071 21.8586 36.9955 21.9821 36.8684 23.1462C37.4778 22.9118 37.8456 22.4465 38.412 22.0948C38.9784 21.7431 39.3364 21.2635 39.6433 20.7311C39.9502 20.1978 39.2979 19.0649 40.029 18.8815C40.7601 18.6971 40.1247 20.23 40.0898 20.5512C41.058 19.924 41.5556 18.9611 41.7005 17.8667C40.6589 17.4837 40.8755 15.9634 41.1833 15.023C41.492 14.0834 41.6263 12.7707 41.5216 11.6924C43.1314 13.0919 44.2204 16.5603 42.0585 17.8667C42.0942 18.2202 41.9403 18.5253 41.8795 18.851C42.4119 18.5083 42.675 17.9168 43.1099 17.4864C43.5448 17.0569 43.8893 16.4538 44.0468 15.9178C44.2043 15.3827 43.6137 14.1031 44.4718 14.1111C45.33 14.1192 44.1998 15.4408 44.385 15.8086C44.9165 15.1044 45.6637 14.4413 45.2136 13.5483C44.7626 12.6561 45.5241 11.6969 45.9689 10.9497C46.4127 10.2016 46.5371 9.11796 46.8905 8.38151C47.193 9.25129 47.5742 10.326 47.6064 11.245C47.6386 12.164 47.5062 13.406 46.7787 13.9966C46.0512 14.5872 45.2127 14.6292 45.0114 15.7191C45.2816 15.3979 46.4494 15.3943 45.9733 16.0547C45.4982 16.7151 45.1071 15.5473 44.5416 16.3231C43.9761 17.099 43.2674 17.864 42.7743 18.6721C43.0723 18.6721 43.3712 18.6721 43.6692 18.6721C44.1971 16.5003 47.1751 17.4265 48.5907 16.1665C48.1048 17.2055 47.7559 18.1576 46.8216 18.9611C45.8874 19.7647 44.7152 19.9651 43.6888 19.1893C42.6625 18.4135 41.3766 19.9481 40.8057 20.6407C41.1878 20.9002 42.3117 20.0125 42.326 20.8188C42.3412 21.625 41.594 21.1991 41.1636 20.9986C40.7332 20.7982 40.0692 21.2098 39.799 21.6027C39.5297 21.9964 38.9981 22.1986 38.6805 22.5422C38.3628 22.8858 37.978 23.1838 37.5843 23.4147C38.3091 23.9247 38.778 23.5811 39.2174 22.9896C39.6567 22.3982 40.5686 22.6076 41.1932 22.7588C41.8168 22.91 42.5166 23.2679 43.2155 23.3315C43.9134 23.3959 44.828 23.4684 45.5483 23.3252C44.1765 25.3923 40.361 26.6987 38.7476 24.22C38.0943 24.28 37.2407 23.7592 36.6966 24.1377C36.1526 24.5162 35.8063 24.7704 35.2577 25.1149C35.681 25.624 36.4389 24.5762 36.6895 25.3833C36.94 26.1905 35.6837 26.3587 35.7051 25.6518C34.89 25.2724 34.2161 25.7654 33.5647 26.1958C32.9133 26.6253 32.2269 26.8276 31.6784 27.352C32.0041 27.4495 32.2126 27.8173 32.5732 27.7994C34.388 25.3431 37.2818 28.6781 39.7319 27.6204C39.067 28.4535 38.4165 28.8553 37.4671 29.2928C36.5185 29.7313 35.2667 29.9989 34.1544 29.7975C33.0421 29.5962 32.686 28.7631 31.8779 28.1367C31.0699 27.5103 30.1635 27.8343 29.3518 28.4257C29.58 28.5519 29.8404 28.5662 30.0677 28.6942C30.4999 28.1197 31.1755 28.6199 30.9599 29.2284C30.7442 29.8369 29.8297 29.8074 29.8887 29.0521C28.3389 28.1573 26.874 29.8172 25.3251 30.0364C25.6275 30.3953 26.109 30.5599 26.4884 30.8418C27.4655 29.343 29.3894 30.1886 30.3585 31.2668C31.3267 32.346 33.0117 32.6807 34.0944 33.3473C32.9849 33.7992 31.801 33.8207 30.6064 33.9755C29.4118 34.1312 28.3845 34.0516 27.3564 33.3742C26.3273 32.6968 26.5653 31.6534 25.6141 31.0002C24.6629 30.347 23.7976 30.4597 22.7363 30.9375C21.6751 31.4154 20.6147 31.5022 19.5105 31.8279C18.4071 32.1545 17.3539 32.3075 16.1987 32.5429C15.0426 32.7773 13.8346 32.9366 12.6247 33.0851C11.4149 33.2346 10.2105 33.3491 8.94966 33.4368C7.68974 33.5254 6.33049 33.6587 5.0124 33.6158C3.69432 33.5728 2.31001 33.648 0.985658 33.6158C0.949865 35.0788 1.03308 36.7361 0.985658 38.1794C0.938232 39.6228 1.0483 41.1333 1.16462 42.4746C1.28095 43.816 1.53151 45.1475 1.85186 46.351C2.17131 47.5555 2.61067 48.521 3.10462 49.5724C3.59857 50.6239 4.19811 51.4614 4.90055 52.3401C5.60389 53.2189 6.24369 53.9115 7.09289 54.622C7.94208 55.3334 8.65616 56.0152 9.56889 56.6201C10.4807 57.225 11.389 57.8532 12.3473 58.4053C13.3066 58.9565 14.3715 59.3538 15.3719 59.8549C16.3723 60.356 17.447 60.8446 18.4277 61.3627C19.4085 61.8817 20.348 62.3667 21.2912 62.9734C22.2352 63.5792 23.131 63.9533 24.0052 64.7336C24.8804 65.513 25.751 65.7116 26.5555 66.7469C27.3608 67.7823 28.1465 66.8302 28.9867 66.091C29.827 65.3519 30.7648 64.8436 31.656 64.1967C32.5482 63.5506 33.494 63.0647 34.43 62.4965C35.3669 61.9292 36.3387 61.42 37.3087 60.901C38.2796 60.3829 39.3677 59.8997 40.3511 59.3798C41.3354 58.8608 42.3537 58.4232 43.2888 57.8434C44.2248 57.2635 45.1188 56.6505 45.9886 55.9794C46.8583 55.3083 47.6529 54.7821 48.4341 53.9508C49.2144 53.1186 49.8077 52.4332 50.4475 51.49C51.0873 50.5469 51.6502 49.6771 52.0833 48.5622C52.5155 47.4463 52.817 46.3653 53.1248 45.1296C53.4327 43.8938 53.5123 42.4084 53.6081 41.0491C53.7047 39.6908 53.6949 38.0828 53.6913 36.6582C53.6877 35.2336 53.5758 33.7768 53.5123 32.363C48.7473 30.3246 48.4485 22.4161 53.3333 20.3723ZM15.303 39.5217C15.303 40.446 15.303 41.3713 15.303 42.2956C14.9746 42.2956 14.6471 42.2956 14.3187 42.2956C14.1021 41.7525 14.1692 40.8961 13.5062 40.6026C12.8431 40.3091 11.7451 40.6214 11.0078 40.506C11.0078 41.7292 11.0078 42.9516 11.0078 44.1748C12.5585 43.8401 15.0148 44.0513 15.6537 45.7032C16.2927 47.3541 16.0341 49.5107 14.2578 50.1988C12.4816 50.8878 10.087 50.3626 8.14432 50.5281C8.11658 49.7764 8.93803 49.6762 8.86018 48.8279C8.78233 47.9796 8.87181 47.1698 8.86018 46.3224C8.84855 45.475 8.81276 44.6714 8.86018 43.8169C8.90761 42.9623 8.72238 42.1865 8.86018 41.3113C8.99799 40.4362 8.164 40.2697 8.14432 39.5217C10.5308 39.5217 12.9165 39.5217 15.303 39.5217ZM30.0677 39.5217C30.0677 40.5355 30.0677 41.5503 30.0677 42.5641C29.7393 42.5641 29.4118 42.5641 29.0834 42.5641C29.0458 41.0814 27.9541 40.0729 26.3989 40.506C26.3685 41.4133 26.4392 42.2795 26.3989 43.1905C26.3586 44.1014 26.4758 44.9488 26.3989 45.875C26.3219 46.8011 26.5635 47.5975 26.3989 48.5595C26.2342 49.5214 27.0906 49.7854 27.2042 50.5281C25.981 50.5281 24.7587 50.5281 23.5354 50.5281C23.5148 49.7747 24.3417 49.6807 24.2513 48.8279C24.1609 47.9751 24.2746 47.1698 24.2513 46.3224C24.228 45.475 24.2227 44.667 24.2513 43.8169C24.2799 42.9668 24.1529 42.174 24.2513 41.3113C24.3497 40.4487 23.5596 40.2653 23.5354 39.5217C25.7126 39.5217 27.8906 39.5217 30.0677 39.5217ZM38.8371 39.5217C38.8371 40.4765 38.8371 41.4303 38.8371 42.3851C37.9386 42.6339 37.7418 42.0191 37.5915 41.3042C37.4402 40.5901 36.6376 40.3762 35.9736 40.506C35.9405 41.4124 36.0174 42.2795 35.9736 43.1905C35.9297 44.1014 36.0586 44.9497 35.9736 45.875C35.8886 46.8002 36.1552 47.5993 35.9736 48.5595C35.7919 49.5196 36.6411 49.8015 36.7789 50.5281C35.4967 50.5281 34.2135 50.5281 32.9312 50.5281C32.9249 49.7451 33.9182 49.6762 33.8251 48.7375C33.7329 47.7998 33.8707 46.8888 33.826 45.9645C33.7813 45.0401 33.8484 44.1999 33.826 43.28C33.8036 42.3601 33.843 41.4268 33.826 40.506C33.1737 40.4183 32.3307 40.4979 32.1464 41.2424C31.9621 41.9869 31.8726 42.6697 30.8731 42.3851C30.8731 41.4303 30.8731 40.4765 30.8731 39.5217C33.528 39.5217 36.1821 39.5217 38.8371 39.5217ZM43.1323 39.5217C43.1627 40.4693 42.3135 40.2277 42.8039 41.3713C43.2933 42.5158 43.6915 43.8133 44.1166 44.9801C44.7009 43.9162 45.0212 42.5543 45.457 41.399C45.8928 40.2429 45.0365 40.4389 45.0114 39.5217C45.9358 39.5217 46.861 39.5217 47.7854 39.5217C47.6243 40.3986 46.6892 40.9641 46.4163 41.9109C46.1425 42.8567 45.6315 43.7131 45.3004 44.6428C44.9693 45.5725 44.6266 46.4369 44.2669 47.3676C43.9063 48.2982 43.5564 49.0579 42.9739 49.9223C42.3904 50.7867 40.999 50.8932 40.0898 50.5281C40.0898 49.7523 40.0898 48.9774 40.0898 48.2015C40.4478 48.2015 40.8057 48.2015 41.1636 48.2015C40.8889 49.1456 41.9126 49.4507 42.4388 48.8503C42.964 48.2499 43.0276 47.5993 42.692 46.9416C42.3555 46.2848 42.2419 45.7202 41.9752 45.0634C41.7095 44.4066 41.4374 43.8008 41.2254 43.1287C41.0142 42.4558 40.6509 41.9869 40.4683 41.2908C40.2858 40.5955 39.6549 40.1302 39.5529 39.5217C40.7457 39.5217 41.9394 39.5217 43.1323 39.5217ZM18.7033 50.5281C18.6658 51.2484 18.7534 51.8542 18.7033 52.5862C18.6532 53.3182 19.6313 53.2761 19.4192 54.0179C18.2854 54.0179 17.1526 54.0179 16.0188 54.0179C15.8622 53.2905 16.749 53.2054 16.7284 52.4905C16.707 51.7746 16.7544 50.9746 16.7347 50.2597C16.715 49.5447 16.7571 48.717 16.7347 48.0226C16.7123 47.3282 16.7741 46.4253 16.7347 45.7855C16.6953 45.1457 16.8555 44.1247 16.6461 43.637C16.4367 43.1493 15.4086 42.6974 16.2882 42.4755C17.1678 42.2536 17.7602 42.6402 18.6139 42.4746C18.6139 42.8621 18.6139 43.2504 18.6139 43.6379C19.5069 42.3619 21.6706 41.7936 22.544 43.3766C23.4164 44.9605 23.3198 46.8906 22.9099 48.6499C22.4992 50.4091 20.3042 50.9889 18.7033 50.5281Z" fill="#8BB174"/>
    <path d="M20.2245 43.7275C19.1373 43.4169 18.5995 44.6706 18.7033 45.6066C18.8071 46.5426 18.5959 47.9341 18.8 48.9103C19.0031 49.8875 20.3203 50.0315 20.6925 49.2065C21.0648 48.3815 21.2303 47.0383 21.1176 46.2348C21.0039 45.4312 21.105 43.9789 20.2245 43.7275Z" fill="#8BB174"/>
    <path d="M11.0078 49.5438C12.7438 49.9277 13.8355 48.9684 13.7818 47.3067C13.7281 45.645 12.7348 44.811 11.0078 45.1591C11.0078 46.6204 11.0078 48.0825 11.0078 49.5438Z" fill="#8BB174"/>
</svg>
