<svg width="61" height="68" viewBox="0 0 61 68" fill="none" xmlns="http://www.w3.org/2000/svg">
    <path fill-rule="evenodd" clip-rule="evenodd" d="M9.54777 8.90696C13.992 4.45508 19.5504 1.53527 25.591 0.47939C28.2238 0.0192342 32.9926 -0.426294 37.3305 0.754799C41.3948 1.7089 45.4609 3.594 48.7222 6.03612C51.0187 7.75571 51.5508 8.24238 53.2231 10.1527C57.1685 14.6593 59.6009 19.8466 60.4871 25.6434C60.9298 28.5389 60.7735 33.886 60.1695 36.5176C59.0265 41.4978 56.8836 45.8993 53.9063 49.3816L52.8551 50.6112H60.9951L60.9976 55.5826L61 60.5541L58.7206 63.9219L56.4413 67.2897L32.5185 67.2826H8.89934L1.68196 58.321L1.57583 50.5042H8.5478L7.4791 49.2213C4.5159 45.6638 2.32963 41.0858 1.30106 36.2847C0.272484 31.4837 0.745899 26.6822 1.28761 24.1695C2.58512 18.1509 5.26721 13.195 9.54777 8.90696ZM29.0543 2.17638C28.9353 2.22437 28.8668 2.41078 28.787 2.90484C28.6991 3.44874 28.6523 3.54707 28.6504 3.19252C28.6488 2.91319 28.5994 2.36885 28.5662 2.26463C28.5538 2.22576 28.4881 2.20555 28.4171 2.21875C28.3473 2.23172 28.2716 2.24425 28.2488 2.24653C28.226 2.24881 28.2181 2.33205 28.2313 2.4316C28.2444 2.53115 28.2689 2.81298 28.2857 3.05795L28.3215 3.57954L28.3235 3.60829L28.3236 3.60993L28.3526 4.03228C28.3726 4.32319 28.3948 4.61131 28.402 4.67255C28.4092 4.7338 28.4182 4.87789 28.4221 4.99269C28.429 5.19335 28.4369 5.20148 28.6264 5.20148C28.8176 5.20148 28.8227 5.19596 28.7953 5.02053C28.7357 4.63976 28.7066 3.95383 28.7522 4.00584C28.7783 4.03568 28.8798 4.31461 28.9775 4.62562C29.1204 5.08005 29.1741 5.18756 29.2511 5.17275C29.3038 5.16261 29.4513 5.15243 29.5789 5.15009C29.7911 5.14619 29.8136 5.13155 29.8431 4.97877L29.8753 4.81174L29.8897 4.73688L29.9075 4.64472C29.9375 4.48933 29.9568 4.47769 30.1845 4.47769C30.4061 4.47769 30.4326 4.49222 30.464 4.6308L30.4669 4.64376L30.467 4.64386C30.5409 4.97066 30.5633 5.06953 30.6223 5.10222C30.6479 5.1164 30.6804 5.11814 30.727 5.12063L30.7313 5.12086C30.8165 5.12542 30.8968 5.10154 30.9096 5.06785C30.9225 5.03417 30.7951 4.37296 30.6266 3.59851C30.4581 2.824 30.3202 2.17888 30.3202 2.16485C30.3202 2.15077 30.2326 2.1393 30.1256 2.1393C30.0185 2.1393 29.9309 2.15261 29.9309 2.16892C29.9309 2.22253 29.5403 4.61371 29.5082 4.75596C29.4833 4.86659 29.4449 4.79526 29.32 4.40642C29.2337 4.13768 29.1247 3.8593 29.0779 3.78781C29.0069 3.67924 29.0024 3.59439 29.0509 3.27431C29.1244 2.78965 29.1821 2.64038 29.2961 2.64038C29.3558 2.64038 29.3751 2.61043 29.3529 2.5523C29.3343 2.50387 29.3191 2.39112 29.3191 2.30176C29.3191 2.14013 29.2387 2.10205 29.0543 2.17638ZM31.0943 2.18106C31.0832 2.28322 31.0528 3.03134 31.0189 4.0359L30.9821 5.1252L31.1657 5.12158L31.1837 5.12131L31.1932 5.12122C31.2399 5.12077 31.2737 5.12044 31.2984 5.10524C31.3629 5.06545 31.3645 4.92381 31.3704 4.41156L31.3717 4.29674L31.377 3.86525H31.6276H31.8783L31.8436 4.50553L31.809 5.1458H31.979C32.0725 5.1458 32.1604 5.12698 32.1743 5.10404C32.1881 5.0811 32.2171 4.40848 32.2388 3.60942L32.2782 2.15656L32.1057 2.15166C31.9555 2.14737 31.9325 2.16614 31.9282 2.29614C31.9255 2.37832 31.9156 2.57079 31.9062 2.7239C31.8968 2.87701 31.8865 3.07115 31.8834 3.15539C31.8784 3.28611 31.8538 3.30849 31.7152 3.30849C31.4087 3.30849 31.4033 3.29725 31.4224 2.69556L31.44 2.1393H31.2694C31.1756 2.1393 31.0968 2.15806 31.0943 2.18106ZM32.9511 2.30082C32.4314 2.73514 32.2476 4.52963 32.668 5.06468C32.99 5.47445 33.3995 5.28376 33.6211 4.62089C33.6716 4.46995 33.7129 4.34318 33.7129 4.33906C33.7129 4.33494 33.6397 4.27737 33.5501 4.21111L33.3873 4.09057L33.2969 4.36277C33.2165 4.60541 33.1307 4.70039 32.9921 4.70039C32.8207 4.70039 32.7561 3.87761 32.8803 3.27481C32.9925 2.72946 33.3368 2.60581 33.4131 3.0834C33.4467 3.29357 33.4522 3.29825 33.5942 3.23589C33.6748 3.20054 33.7585 3.1462 33.7801 3.11524C33.8179 3.06118 33.8145 3.02076 33.7442 2.68643C33.727 2.60458 33.6481 2.46049 33.5689 2.36629C33.4001 2.16536 33.1454 2.13841 32.9511 2.30082ZM27.6393 2.29324C27.5872 2.30438 27.5328 2.35571 27.5183 2.40732C27.4949 2.49067 27.343 3.41433 27.2994 3.73853C27.2622 4.01463 27.2213 3.88931 27.1544 3.2943L27.1509 3.26322C27.075 2.58765 27.0557 2.41595 26.9825 2.3887C26.9576 2.37942 26.9265 2.38691 26.8847 2.39695L26.879 2.3983C26.7987 2.41757 26.7263 2.43856 26.7182 2.44485C26.7101 2.4512 26.7846 3.11162 26.8836 3.91247L27.0637 5.3685H27.2199C27.3058 5.3685 27.3899 5.33231 27.4068 5.28811C27.4238 5.2439 27.494 4.8618 27.563 4.43905L27.6882 3.67039L27.7489 4.03228C27.7822 4.23132 27.8251 4.53197 27.8442 4.70039C27.9113 5.29212 27.9175 5.30631 28.0848 5.26044C28.1839 5.23327 28.2329 5.18338 28.2296 5.11301C28.2229 4.96998 28.1603 4.42597 28.0958 3.94877C28.0321 3.47903 27.9976 3.20477 27.9553 2.83525C27.8886 2.25182 27.8825 2.2413 27.6393 2.29324ZM34.1578 2.41005C34.1578 2.43644 34.0703 3.06625 33.9632 3.80958C33.8561 4.55291 33.7685 5.19229 33.7685 5.23048C33.7685 5.28872 34.045 5.38754 34.0886 5.34484C34.1195 5.31439 34.2571 4.46644 34.2654 4.25498C34.278 3.93095 34.3715 4.29992 34.4087 4.82065C34.4303 5.12247 34.4641 5.37919 34.4837 5.39116C34.5033 5.40319 34.5944 5.42179 34.6862 5.43248L34.8531 5.45202L34.8372 5.17364C34.8285 5.02053 34.7927 4.69482 34.7576 4.44985C34.6717 3.84927 34.6766 3.78185 34.836 3.36417C34.9367 3.10043 35.0049 2.99771 35.0874 2.98541C35.1744 2.97243 35.208 2.91442 35.2319 2.73592C35.2506 2.59612 35.2391 2.48855 35.203 2.46617C35.1266 2.41896 34.8437 2.51578 34.8046 2.60252C34.7883 2.63866 34.6872 2.88118 34.58 3.14147C34.3669 3.65858 34.3536 3.63275 34.4568 2.90351C34.4949 2.63487 34.5141 2.40309 34.4995 2.3885C34.4527 2.34168 34.1578 2.36028 34.1578 2.41005ZM26.1999 2.4954C26.1872 2.50748 26.0891 2.53009 25.9821 2.54562C25.5103 2.61399 25.3147 2.65725 25.3147 2.69333C25.3147 2.71465 25.4023 3.21346 25.5093 3.80173C25.7282 5.00427 25.7359 5.09012 25.6252 5.09012C25.5819 5.09012 25.5325 5.12147 25.5156 5.15972C25.4955 5.20504 25.488 5.20014 25.4941 5.1458C25.518 4.93078 25.406 4.52379 25.259 4.29168C25.0745 4.00055 24.9185 3.93652 24.5941 4.01897L24.377 4.07415L24.3104 3.79638C24.2336 3.47613 24.2534 3.45002 24.6147 3.39535C24.9519 3.34424 24.9825 3.31172 24.9266 3.06363C24.9001 2.94588 24.8577 2.82979 24.8324 2.80574C24.807 2.78163 24.5611 2.81799 24.2857 2.88653C23.891 2.98474 23.7869 3.03112 23.7932 3.10594C23.7977 3.15811 23.9465 3.81526 24.1241 4.56627L24.4468 5.93178L24.5888 5.89548C24.6668 5.87549 24.7682 5.85133 24.8141 5.84175C25.2747 5.74576 25.4815 5.60468 25.4815 5.38665C25.4815 5.20599 25.5657 5.22391 25.581 5.40781C25.5987 5.62227 25.6738 5.67901 25.8557 5.61498C26.1218 5.52128 26.1358 5.35119 25.9622 4.31957C25.8764 3.80941 25.7938 3.33889 25.7787 3.27403C25.7567 3.17949 25.7825 3.15004 25.9083 3.12582C25.9948 3.10923 26.0731 3.10305 26.0823 3.11212C26.0915 3.12126 26.185 3.60135 26.29 4.17899L26.3427 4.46981L26.3431 4.4719L26.3431 4.47199L26.3431 4.47206L26.3431 4.47218C26.4901 5.28474 26.5211 5.45634 26.5904 5.47344C26.6089 5.47802 26.6302 5.47153 26.6571 5.4633L26.6572 5.46328L26.6572 5.46327L26.6572 5.46327C26.6683 5.45989 26.6803 5.45622 26.6935 5.45291C26.7762 5.43214 26.8512 5.40781 26.8602 5.3989C26.8691 5.38994 26.7576 4.72806 26.6123 3.928C26.3746 2.61811 26.3093 2.3914 26.1999 2.4954ZM35.8461 2.63782C35.3784 2.83503 34.9355 4.27219 35.1009 5.05616C35.2153 5.59844 35.6011 5.81241 35.958 5.53147C36.5603 5.05716 36.8548 3.15171 36.3907 2.7313C36.2655 2.61789 36.0011 2.57251 35.8461 2.63782ZM37.1056 2.89042C37.1056 2.90958 36.9416 3.5538 36.7411 4.32207C36.5406 5.09029 36.3967 5.73624 36.4213 5.75751C36.462 5.79281 37.3646 6.03912 37.4466 6.03739C37.4754 6.03673 37.6061 5.60863 37.6061 5.51488C37.6061 5.50001 37.4705 5.45747 37.3047 5.42034L37.3022 5.41977C37.068 5.3673 36.9585 5.34278 36.92 5.27683C36.8863 5.21899 36.9071 5.12926 36.9462 4.96083L36.9467 4.95867C37.0261 4.61688 37.0361 4.61159 37.4183 4.70791C37.7121 4.78201 37.7544 4.75323 37.8035 4.44601L37.8396 4.21946L37.522 4.14831L37.2043 4.07716L37.2412 3.84593C37.2615 3.71877 37.2975 3.59528 37.3213 3.57145C37.345 3.54768 37.5001 3.55948 37.666 3.59762L37.7079 3.60729C37.9087 3.65369 37.9972 3.67415 38.0474 3.63933C38.0869 3.61187 38.1025 3.55002 38.1305 3.43938L38.1379 3.41016L38.2042 3.14998L37.7522 3.03073C37.5036 2.9652 37.2564 2.89894 37.2029 2.88358C37.1494 2.86815 37.1056 2.87127 37.1056 2.89042ZM23.299 3.15539C23.2179 3.21791 23.2157 3.28845 23.2767 3.85133C23.3141 4.19586 23.3394 4.47769 23.3328 4.47769C23.3262 4.47769 23.1769 4.21746 23.0009 3.89944L22.6809 3.32119L22.51 3.37876C22.4161 3.41044 22.3326 3.44128 22.3247 3.44724C22.3167 3.4532 22.5608 3.88524 22.8669 4.40737C23.4518 5.40469 23.537 5.65908 23.3101 5.73112C23.2372 5.75434 23.2064 5.80044 23.2241 5.86018C23.2392 5.91129 23.268 6.02197 23.288 6.10621C23.3327 6.29389 23.486 6.30826 23.6535 6.14056C23.7658 6.02815 23.7702 5.98651 23.7362 5.35921C23.7025 4.7387 23.6608 4.17002 23.6206 3.78174C23.611 3.68987 23.6004 3.49568 23.5969 3.35025C23.5917 3.13456 23.572 3.08579 23.4899 3.08579C23.4346 3.08579 23.3487 3.11714 23.299 3.15539ZM36.2076 3.36495C36.2976 3.62312 36.1899 4.41778 36.0193 4.75618C35.811 5.16924 35.5268 5.16083 35.4637 4.73976C35.4241 4.47568 35.5135 3.88931 35.6393 3.58804C35.8194 3.1565 36.0971 3.04754 36.2076 3.36495ZM30.235 3.51049C30.2562 3.65218 30.2848 3.7975 30.2986 3.83341C30.3137 3.87271 30.2676 3.89866 30.1829 3.89866C30.0293 3.89866 30.0153 3.84059 30.0779 3.4616C30.1245 3.17899 30.1883 3.19881 30.235 3.51049ZM21.491 3.71159C21.2386 3.80306 21.0321 3.9025 21.0321 3.93268C21.0321 3.9844 21.965 6.65529 21.9925 6.68223C22.0307 6.71959 22.3113 6.62711 22.3113 6.57717C22.3113 6.54477 22.1511 6.0654 21.9552 5.51187C21.7594 4.95839 21.5904 4.45842 21.5798 4.40086C21.5654 4.32297 21.6128 4.27781 21.7651 4.2242C21.9638 4.15427 21.9713 4.15649 22.0233 4.30103C22.0527 4.38287 22.2321 4.8883 22.422 5.42418C22.6118 5.96006 22.7743 6.40597 22.783 6.41516C22.8253 6.4597 23.09 6.34951 23.09 6.28732C23.09 6.22814 22.541 4.63397 22.2223 3.76782C22.1194 3.48822 22.1094 3.48744 21.491 3.71159ZM39.5456 3.68431C39.5417 3.73787 39.5328 3.83185 39.5257 3.89309C39.4876 4.22408 39.3842 5.15794 39.357 5.41761C39.3397 5.58247 39.2872 5.79142 39.2404 5.882C39.1709 6.01663 39.1306 6.04046 39.0195 6.01251C38.8801 5.97749 38.86 6.00299 38.7514 6.35224C38.6867 6.56036 39.031 6.62132 39.2357 6.43798C39.3596 6.32713 40.7979 4.03523 40.7645 4.00188C40.7512 3.98863 40.6671 3.96391 40.5776 3.94699C40.4218 3.91748 40.4018 3.93863 40.109 4.44295C39.9408 4.73268 39.7946 4.96101 39.784 4.95043C39.7629 4.92939 39.8785 3.9476 39.9188 3.80496C39.9343 3.74989 39.8902 3.69244 39.8012 3.65185C39.607 3.56327 39.554 3.57 39.5456 3.68431ZM40.3878 5.4607C40.0532 6.25331 39.8346 6.84069 39.8639 6.86802C39.8916 6.8938 39.9643 6.92971 40.0255 6.94786C40.1225 6.97659 40.1678 6.9065 40.3808 6.39734C40.5151 6.07648 40.6352 5.81391 40.6477 5.81391C40.6712 5.81391 41.0125 5.98294 41.0441 6.01017C41.0537 6.01852 40.9599 6.26455 40.8356 6.55702C40.7112 6.84948 40.6095 7.11589 40.6095 7.14908C40.6095 7.22207 40.8442 7.32011 40.898 7.26961C40.9376 7.23237 41.9555 4.87299 42.0204 4.66793C42.0487 4.57852 42.0245 4.53709 41.9146 4.48699C41.8363 4.45124 41.7643 4.42201 41.7546 4.42201C41.745 4.42201 41.6422 4.64839 41.5263 4.92505C41.4105 5.2017 41.3007 5.43621 41.2823 5.44617C41.2281 5.47579 40.8876 5.31689 40.8876 5.26194C40.8876 5.2341 40.9752 5.00644 41.0822 4.75607C41.1893 4.50569 41.2769 4.28043 41.2769 4.25549C41.2769 4.2306 41.2061 4.1855 41.1195 4.15527L40.9621 4.10037L40.3878 5.4607ZM20.011 4.29023C19.7642 4.53732 19.7656 4.97048 20.0157 5.67472C20.256 6.35174 20.5811 6.83506 20.9111 7.00588C21.1334 7.1209 21.251 7.11612 21.4215 6.98505C21.5493 6.88673 21.5605 6.84219 21.5605 6.4323C21.5605 6.18711 21.5355 5.9619 21.5049 5.93183C21.4743 5.90177 21.3742 5.8692 21.2824 5.85945C21.1567 5.84609 21.1207 5.86229 21.1363 5.92526C21.1965 6.16779 21.1838 6.42534 21.1086 6.48781C20.9763 6.59772 20.7523 6.38587 20.5253 5.93612C20.0993 5.09207 20.158 4.42669 20.618 4.88713L20.805 5.07437L20.927 4.94448L21.0488 4.81464L20.9015 4.59182C20.6236 4.1713 20.2546 4.04637 20.011 4.29023ZM24.9841 4.64789C25.0672 4.73101 25.0939 4.81882 25.0815 4.96803C25.0665 5.14803 25.0401 5.18154 24.8697 5.237L24.6751 5.30041L24.6066 5.04213C24.4918 4.60881 24.495 4.60146 24.828 4.54094C24.851 4.53676 24.9212 4.58492 24.9841 4.64789ZM18.7179 4.88412L18.2668 5.11796L18.5068 5.61905C19.2897 7.25397 19.5496 7.76257 19.6023 7.76257C19.6348 7.76257 19.8697 7.66163 20.1243 7.53825L20.5873 7.31393L20.5009 7.10676C20.4534 6.99279 20.395 6.87999 20.3712 6.85605C20.3473 6.83211 20.1922 6.87571 20.0265 6.95293C19.8607 7.03021 19.6985 7.09362 19.666 7.0939C19.5986 7.09451 19.3479 6.55256 19.3865 6.48993C19.4005 6.46732 19.5367 6.39027 19.6893 6.31872L19.9667 6.18867L19.8487 5.94564C19.7838 5.81196 19.7099 5.70256 19.6844 5.70256C19.6589 5.70256 19.5143 5.76531 19.363 5.84203L19.0881 5.9815L18.9756 5.76074C18.9137 5.63931 18.863 5.51699 18.863 5.48893C18.863 5.46087 19.0003 5.37847 19.168 5.30581C19.3357 5.2331 19.4734 5.14318 19.4739 5.10594C19.4755 4.98985 19.2904 4.64455 19.2282 4.6475C19.1956 4.64906 18.9659 4.75551 18.7179 4.88412ZM41.7517 6.01757C41.3988 6.73963 41.11 7.35313 41.11 7.38085C41.11 7.40858 41.1731 7.45529 41.2502 7.48458C41.3984 7.54098 41.4057 7.53458 42.3321 6.5377L42.5649 6.28716L42.1992 7.02358L41.8336 7.75995L41.9911 7.84152L42.1486 7.92303L42.8044 6.58797C43.1651 5.85366 43.4507 5.24474 43.4392 5.23471C43.4276 5.22475 43.3579 5.18511 43.2842 5.14669C43.1633 5.08361 43.1363 5.0928 43.0061 5.24173C42.7154 5.57439 41.9999 6.33142 41.9999 6.30642C41.9999 6.29228 42.1501 5.97454 42.3336 5.60034C42.5172 5.22614 42.6673 4.89966 42.6673 4.87483C42.6673 4.84994 42.6057 4.8015 42.5304 4.76715C42.3947 4.70529 42.3877 4.71654 41.7517 6.01757ZM43.6266 5.4381C43.5961 5.4764 43.5306 5.58748 43.4812 5.68502C43.396 5.853 43.3968 5.86413 43.497 5.89598C43.7782 5.98534 43.762 6.04552 43.1741 7.09418C42.8648 7.64598 42.6117 8.11834 42.6117 8.14378C42.6117 8.1886 42.8925 8.33982 42.9156 8.30747C42.9219 8.29867 43.1551 7.8781 43.4339 7.37284L43.5357 7.18814C43.9389 6.45638 44.0351 6.28177 44.1331 6.28073C44.1638 6.28041 44.1948 6.29713 44.2354 6.3191C44.2456 6.32466 44.2565 6.33055 44.2682 6.3366C44.437 6.42395 44.4451 6.42278 44.5092 6.30141C44.5457 6.23232 44.6104 6.12219 44.6528 6.0566C44.7268 5.94236 44.7088 5.92554 44.2194 5.65295C43.9386 5.4965 43.7027 5.3685 43.6954 5.3685C43.6881 5.3685 43.6571 5.39985 43.6266 5.4381ZM17.3452 5.60206C17.1681 5.69827 17.0304 5.80495 17.0393 5.83919C17.0482 5.87337 17.3669 6.4686 17.7474 7.16194L18.4394 8.42249L18.5985 8.34015L18.7577 8.25781L18.4966 7.77849C18.475 7.73874 18.455 7.70235 18.4366 7.66893C18.32 7.45706 18.2691 7.36465 18.2902 7.29367C18.3066 7.23876 18.366 7.19667 18.4714 7.12203C18.4928 7.10684 18.5162 7.09029 18.5415 7.07202C18.935 6.78763 18.2663 5.41483 17.7396 5.42568C17.6998 5.42646 17.5223 5.50586 17.3452 5.60206ZM17.9865 6.05799C18.0397 6.09847 18.1213 6.22268 18.1678 6.33409C18.2471 6.52422 18.2455 6.54349 18.1405 6.64855C18.0791 6.71007 18.0073 6.7604 17.9809 6.7604C17.9546 6.7604 17.8549 6.6137 17.7595 6.43442L17.5859 6.10838L17.71 6.04842C17.87 5.97114 17.8723 5.97125 17.9865 6.05799ZM44.8796 6.49973C44.7393 6.6584 44.5199 6.90098 44.3921 7.03878C43.5809 7.91312 43.1908 8.34121 43.1571 8.39421C43.1357 8.42784 43.185 8.49849 43.2677 8.55283L43.4169 8.65077L43.6469 8.39271L43.8769 8.13471L44.0647 8.26465C44.1679 8.33614 44.2596 8.3995 44.2684 8.4054C44.2771 8.41136 44.2321 8.54882 44.1683 8.71095L44.1616 8.72777C44.1077 8.86462 44.0775 8.94105 44.0937 9.00591C44.1142 9.08795 44.2088 9.1515 44.423 9.29542L44.4439 9.30941L44.691 9.47549L44.9659 9.07836C45.1172 8.85994 45.2589 8.66112 45.2808 8.63651C45.3027 8.61191 45.4113 8.64537 45.5222 8.71084C45.6954 8.81317 45.7502 8.82114 45.9123 8.76763C46.2629 8.65177 46.7184 8.06071 46.8013 7.61403C46.8406 7.40196 46.742 7.2587 46.3754 6.99563L46.1213 6.81329L45.5816 7.58023C45.2848 8.00203 44.9807 8.43018 44.9058 8.53162C44.831 8.63312 44.6846 8.84547 44.5806 9.00358C44.4766 9.16176 44.3915 9.26599 44.3915 9.23531C44.3915 9.20463 44.6291 8.56631 44.9195 7.81685C45.21 7.0674 45.4477 6.43603 45.4479 6.41387C45.4481 6.39166 45.3777 6.33699 45.2914 6.29239C45.1371 6.21244 45.1308 6.21561 44.8796 6.49973ZM15.2449 6.90327C15.0477 7.04307 14.853 7.1768 14.8122 7.20041C14.7523 7.23504 14.7576 7.27479 14.84 7.40674C15.0462 7.73701 16.3757 9.6585 16.4147 9.68266C16.4369 9.69642 16.6595 9.56758 16.9094 9.39643L17.3638 9.08526L17.2541 8.91111C17.0733 8.62371 17.0214 8.61808 16.6979 8.85075C16.4616 9.02068 16.3944 9.0469 16.3578 8.98326C16.3327 8.93961 16.2479 8.81763 16.1694 8.71218C16.0908 8.60667 16.0266 8.50089 16.0266 8.477C16.0266 8.45317 16.1518 8.34923 16.3049 8.246L16.5832 8.05838L16.4137 7.82404L16.2441 7.58969L15.9798 7.78389C15.8345 7.89068 15.6917 7.96089 15.6625 7.9399C15.5455 7.85583 15.3493 7.52444 15.397 7.49154C15.425 7.47216 15.5653 7.37395 15.7088 7.27318L15.9696 7.09006L15.8238 6.86953C15.7437 6.74826 15.6613 6.64905 15.6407 6.64905C15.6202 6.64905 15.442 6.76346 15.2449 6.90327ZM44.6619 7.47027C44.5163 7.86768 44.5001 7.88506 44.3675 7.78707C44.2617 7.7089 44.2619 7.70578 44.3756 7.58201C44.4391 7.51292 44.55 7.38793 44.622 7.30424C44.694 7.22062 44.7589 7.15169 44.7661 7.15114C44.7733 7.15058 44.7264 7.29422 44.6619 7.47027ZM46.3076 7.69225C46.3474 7.79597 46.2525 8.01267 46.1085 8.14696C45.9632 8.28247 45.9031 8.28882 45.7642 8.18331C45.6683 8.1106 45.6738 8.09028 45.8673 7.79853C46.0477 7.52639 46.0837 7.49811 46.1759 7.55573C46.2333 7.59164 46.2926 7.65305 46.3076 7.69225ZM46.3653 8.8311L45.4399 10.0107L45.5692 10.1103C45.6403 10.165 45.711 10.2096 45.7263 10.2095C45.7416 10.2092 45.9168 9.99707 46.1156 9.7379C46.3144 9.47878 46.4985 9.26654 46.5247 9.26626C46.5509 9.26604 46.6419 9.3245 46.7271 9.39616L46.8818 9.52649L46.4984 10.0178C46.1332 10.4859 46.1195 10.5141 46.2093 10.6133C46.261 10.6706 46.3337 10.7103 46.3707 10.7015C46.4076 10.6927 46.8397 10.1726 47.3308 9.54565C48.1657 8.47984 48.2179 8.39928 48.1343 8.30686C48.0852 8.25246 48.0148 8.20798 47.9779 8.20798C47.941 8.20798 47.767 8.39588 47.5913 8.62555C47.4155 8.85521 47.2595 9.04311 47.2445 9.04311C47.1941 9.04311 46.8942 8.81323 46.8946 8.77487C46.8949 8.75399 47.0449 8.54899 47.228 8.31933C47.411 8.08966 47.5603 7.88923 47.5595 7.87392C47.5588 7.85861 47.498 7.80227 47.4244 7.74876L47.2907 7.65144L46.3653 8.8311ZM13.9855 7.76324C13.9183 7.79035 13.8215 7.89346 13.7704 7.99245C13.6911 8.14573 13.6869 8.21477 13.7415 8.45907C13.8791 9.0744 14.6336 10.0387 15.16 10.2718C15.6299 10.4798 15.9657 10.2934 15.969 9.82258C15.9732 9.23987 15.247 8.20909 14.5667 7.83216C14.3275 7.69966 14.1851 7.68278 13.9855 7.76324ZM14.9157 8.6006C15.285 8.98265 15.5544 9.47883 15.5034 9.68261C15.4149 10.0353 14.8755 9.72186 14.4396 9.0645C14.1979 8.69993 14.1297 8.3907 14.2685 8.28904C14.4189 8.17897 14.5859 8.25937 14.9157 8.6006ZM12.9851 8.6074L12.8639 8.7369L13.0687 8.96556C13.4955 9.44203 13.5794 9.54453 13.5794 9.58935C13.5794 9.65472 13.302 9.88828 13.2489 9.86756C13.2247 9.85816 13.0485 9.66975 12.8575 9.44888C12.5123 9.04991 12.5093 9.04801 12.3791 9.14266C12.307 9.19511 12.2473 9.25051 12.2464 9.26582C12.2444 9.29844 12.2743 9.33369 13.3639 10.585L14.1975 11.5423L14.3325 11.4248L14.3506 11.4091C14.3939 11.3718 14.4222 11.3475 14.4287 11.3183C14.441 11.2637 14.3774 11.1921 14.1949 10.9864L14.1948 10.9864L14.1539 10.9402C14.057 10.8308 13.9014 10.6535 13.8081 10.5464L13.6386 10.3515L13.8066 10.1845L13.9746 10.0174L14.1246 10.1857C14.2071 10.2783 14.4005 10.4987 14.5545 10.6755L14.8343 10.997L14.9585 10.8646C15.0778 10.7374 15.0789 10.7279 14.9846 10.6188L14.2746 9.79597C13.9381 9.4059 13.5376 8.94975 13.3844 8.78233L13.1061 8.47795L12.9851 8.6074ZM48.2968 9.01968C47.8313 9.25184 47.1277 10.0172 46.9182 10.5193C46.6219 11.229 47.0607 11.6629 47.741 11.3332C48.1843 11.1184 48.9358 10.277 49.1218 9.78711C49.3708 9.13164 48.9175 8.71001 48.2968 9.01968ZM27.0979 9.26816C23.4007 9.93209 19.9132 11.6231 16.9995 14.1646C16.5465 14.5598 15.3669 15.7688 14.9346 16.281C13.1792 18.3609 11.9246 20.5637 11.0738 23.06C10.6633 24.2645 10.3091 25.6867 10.2105 26.5264L10.1747 26.8316L11.0984 26.827C11.6064 26.8244 12.0302 26.8119 12.0402 26.7991C12.0501 26.7864 12.1265 26.4377 12.2098 26.0243C12.8008 23.0924 14.101 20.318 16.0062 17.9234C16.6052 17.1706 18.1501 15.6159 18.863 15.0487C20.9014 13.4266 23.1438 12.2551 25.5135 11.5743C26.3515 11.3335 26.4757 11.3026 26.872 11.2361C26.979 11.2182 27.0797 11.1955 27.0956 11.1857C27.128 11.1659 27.5841 11.0903 27.6923 11.0868C27.7612 11.0846 27.768 10.9886 27.768 10.0174C27.768 9.28185 27.7609 9.15458 27.7201 9.1592C27.6972 9.16182 27.4172 9.21087 27.0979 9.26816ZM33.6017 10.0816V11.024L34.1439 11.1187L34.1889 11.1266L34.1892 11.1266L34.1893 11.1266C34.5145 11.1834 34.674 11.2113 34.8322 11.2452C34.9845 11.2778 35.1355 11.3161 35.4318 11.3912L35.4755 11.4022C38.7648 12.2353 41.8068 13.9688 44.199 16.3734C45.7631 17.9456 46.8383 19.4512 47.8109 21.431C48.5975 23.0322 49.0532 24.3517 49.3973 26.0243C49.4887 26.4683 49.5637 26.8316 49.5637 26.8316C50.5671 26.8316 51.4051 26.8165 51.4235 26.798C51.4369 26.7846 51.3856 26.436 51.3096 26.0232C50.7039 22.7338 49.298 19.6108 47.2372 16.9769C46.5852 16.1436 46.5018 16.0513 45.4501 14.9987C43.1118 12.6585 40.4582 11.0293 37.2541 9.96678C36.6215 9.75699 35.4319 9.43669 34.9921 9.35779C34.8328 9.32918 34.4607 9.26097 34.2969 9.2303C34.2357 9.21888 34.0543 9.19366 33.8937 9.17429L33.6017 9.13916V10.0816ZM48.7033 9.54871C48.8142 9.89874 47.9177 10.9361 47.5042 10.9361C47.1595 10.9361 47.2912 10.4554 47.7833 9.91712C48.2263 9.43257 48.6168 9.27617 48.7033 9.54871ZM11.8259 9.65722C11.7256 9.76818 11.7288 9.77559 11.9981 10.0584C12.1489 10.2169 12.3162 10.3882 12.3697 10.4391C12.4233 10.49 12.467 10.5556 12.467 10.5849C12.467 10.648 12.2294 10.8804 12.165 10.8804C12.1406 10.8804 11.9545 10.7063 11.7515 10.4935L11.3825 10.1065L11.2574 10.2101C11.1885 10.267 11.1322 10.3267 11.1322 10.3425C11.1322 10.3773 11.3943 10.6537 12.4233 11.7044C13.1715 12.4683 13.2073 12.4967 13.3078 12.4056C13.3654 12.3534 13.4125 12.2838 13.4125 12.251C13.4125 12.2181 13.2214 11.9988 12.9878 11.7636L12.5631 11.336L12.7072 11.1917C12.7865 11.1124 12.8707 11.0474 12.8943 11.0474C12.918 11.0474 13.1309 11.2401 13.3675 11.4755C13.7932 11.8992 13.7989 11.9026 13.9124 11.7997C13.9754 11.7426 14.0202 11.6756 14.0118 11.6509C13.988 11.5808 12.0116 9.5442 11.9674 9.5442C11.9458 9.5442 11.8821 9.59509 11.8259 9.65722ZM48.6845 10.7908C48.1281 11.3541 47.6729 11.837 47.6729 11.8641C47.6729 11.8912 47.8469 12.0863 48.0596 12.2976L48.4463 12.6818L48.6426 12.4672L48.8389 12.2527L48.5619 11.9826L48.2848 11.7125L48.5402 11.4568L48.7957 11.2011L49.0546 11.4505L49.0691 11.4644L49.11 11.5042L49.1103 11.5046L49.1118 11.506C49.2099 11.6018 49.2608 11.6515 49.3105 11.6504C49.3642 11.6491 49.4164 11.5885 49.5248 11.4626C49.5427 11.4418 49.5621 11.4193 49.5833 11.395C49.6849 11.2784 49.6832 11.2742 49.4582 11.067C49.3328 10.9516 49.2302 10.8351 49.2302 10.8081C49.2302 10.7374 49.525 10.435 49.5939 10.435C49.6258 10.435 49.7609 10.5461 49.8941 10.682L50.1362 10.929L50.3228 10.7367C50.4254 10.6309 50.5094 10.5331 50.5094 10.5194C50.5094 10.4827 49.7666 9.7669 49.7285 9.7669C49.7107 9.7669 49.2409 10.2277 48.6845 10.7908ZM10.4975 11.0057L10.13 11.4093L10.3782 11.6359C10.6111 11.8485 11.5059 12.6755 12.0745 13.2037L12.328 13.4391L12.7015 13.0366C12.907 12.8153 13.0759 12.6203 13.0769 12.6034C13.078 12.5864 12.9935 12.4897 12.8891 12.3885L12.6994 12.2044L12.4299 12.4917L12.1605 12.779L11.8971 12.5396L11.6337 12.3002L11.8557 12.0587C11.9778 11.926 12.0777 11.8051 12.0777 11.79C12.0777 11.7396 11.7532 11.4372 11.6991 11.4372C11.6698 11.4372 11.5553 11.5374 11.4447 11.6599C11.3342 11.7824 11.2235 11.8826 11.1989 11.8826C11.1742 11.8826 11.0757 11.8011 10.9798 11.7016L10.8056 11.5207L11.0577 11.2468L11.3099 10.973L11.1135 10.7875C11.0055 10.6855 10.9054 10.602 10.8911 10.602C10.8767 10.602 10.6996 10.7837 10.4975 11.0057ZM51.4855 11.7667C51.4682 11.7948 51.0371 12.1619 50.5275 12.5824L50.522 12.5869C49.4204 13.496 49.3467 13.5569 49.3418 13.6229L49.3414 13.6309L49.3414 13.6375V13.6378C49.3414 13.6735 49.3852 13.7416 49.4387 13.7892C49.5288 13.8692 49.6029 13.82 50.426 13.1327C50.9154 12.724 51.3454 12.3883 51.3816 12.3866C51.4177 12.385 51.4994 12.4568 51.5629 12.5462L51.6786 12.7089L50.8854 13.3657L50.6468 13.5631L50.6467 13.5631L50.6467 13.5632C49.9948 14.102 49.8558 14.2169 49.874 14.2952C49.879 14.3164 49.8955 14.3349 49.9164 14.3584L49.9164 14.3585L49.9165 14.3585C49.9251 14.3682 49.9346 14.3788 49.9443 14.3908L50.0523 14.5244L50.4894 14.1659C51.0654 13.6936 51.586 13.2618 51.9232 12.9768C52.0738 12.8496 52.235 12.7173 52.2814 12.6829C52.3532 12.6297 52.309 12.5519 51.989 12.1679C51.6172 11.7217 51.5475 11.6662 51.4855 11.7667ZM9.44968 12.227L9.12249 12.5766L9.33478 12.7545C10.6264 13.8368 11.4392 14.4881 11.4725 14.4675C11.4948 14.4536 11.6297 14.287 11.7723 14.0973C11.9843 13.8149 12.0255 13.723 11.9992 13.5913C11.9285 13.2375 11.3228 12.7038 10.9919 12.7038C10.9113 12.7038 10.8445 12.6638 10.8255 12.604C10.7368 12.324 10.2922 11.9683 9.9573 11.9092C9.79195 11.88 9.74957 11.9066 9.44968 12.227ZM10.3183 12.4991C10.3988 12.5625 10.4643 12.6565 10.4636 12.7079C10.4618 12.8417 10.2528 13.0926 10.201 13.0231C10.1779 12.9919 10.0784 12.9003 9.97999 12.8194L9.80113 12.6724L9.91453 12.528C10.0516 12.3535 10.1266 12.3481 10.3183 12.4991ZM8.63678 13.2498C8.44918 13.5073 8.29573 13.7275 8.29573 13.7392C8.29573 13.7508 8.39651 13.8304 8.5197 13.9158C8.73717 14.0666 8.74595 14.0681 8.82382 13.9651C8.86792 13.9068 8.9048 13.8403 8.90574 13.8173C8.91036 13.7087 9.10063 13.8263 9.97816 14.4803L10.9239 15.185L11.0237 15.0525C11.0786 14.9797 11.1123 14.9018 11.0986 14.8796C11.0848 14.8574 10.6613 14.5339 10.1574 14.1608C9.65352 13.7878 9.24123 13.4513 9.24123 13.4132C9.24123 13.375 9.27877 13.3126 9.32465 13.2745C9.45686 13.1646 9.42393 13.0771 9.19295 12.9241L8.97783 12.7816L8.63678 13.2498ZM51.3613 13.7665C50.7133 14.2461 50.182 14.6511 50.1806 14.6664C50.1793 14.6817 50.224 14.7539 50.2801 14.8269L50.382 14.9596L50.8139 14.6342L51.2458 14.3088L51.3765 14.4609C51.5613 14.676 51.7178 14.7206 51.9955 14.6373C52.2738 14.5539 52.741 14.223 52.9038 13.9943C53.0864 13.7375 53.0603 13.5433 52.7963 13.1933C52.6683 13.0236 52.5582 12.8869 52.5515 12.8896C52.5449 12.8923 52.0093 13.2869 51.3613 13.7665ZM11.2948 13.2516C11.4913 13.4171 11.5062 13.525 11.3594 13.7163C11.2446 13.8658 11.2165 13.8562 10.8411 13.5392L10.6889 13.4108L10.8294 13.2591C11.0039 13.0707 11.0786 13.0695 11.2948 13.2516ZM52.4429 13.6856C52.5159 13.8461 52.4184 14.0154 52.1884 14.1274C51.9855 14.2263 51.8998 14.2145 51.8071 14.0748C51.7337 13.9641 51.7458 13.9436 51.995 13.7564C52.3111 13.5189 52.3633 13.5107 52.4429 13.6856ZM52.2267 14.8368C51.5728 15.2705 51.0151 15.6464 50.9874 15.6723C50.9582 15.6996 51.0574 15.9028 51.2238 16.1564C51.3815 16.3969 51.5105 16.6099 51.5105 16.6299C51.5105 16.6497 51.3981 16.7319 51.2609 16.8125C51.0353 16.9448 51.0173 16.9705 51.0737 17.0793C51.1081 17.1455 51.143 17.2077 51.1513 17.2176C51.1595 17.2274 51.2711 17.1693 51.3992 17.0883C51.5273 17.0074 51.6611 16.9526 51.6964 16.9666C51.7318 16.9806 51.8405 17.1322 51.938 17.3034L52.1152 17.6148L51.8467 17.7659C51.6012 17.904 51.5832 17.9279 51.6367 18.0455C51.6689 18.1161 51.7138 18.174 51.7367 18.174C51.8396 18.174 52.7341 17.6028 52.7341 17.537C52.7341 17.4964 53.1533 17.2185 53.6657 16.9191C54.178 16.6199 54.6394 16.3464 54.6908 16.3115C54.7752 16.2542 54.7603 16.2067 54.5359 15.8191C54.3993 15.5832 54.2654 15.3902 54.2385 15.3902C54.2114 15.3902 53.9935 15.5061 53.7541 15.6477C53.2009 15.9752 52.4151 16.3729 52.2297 16.4193C52.1011 16.4515 52.0649 16.42 51.8682 16.105C51.7479 15.9124 51.6419 15.7376 51.6326 15.7165C51.6132 15.6724 52.087 15.3345 52.1682 15.3345C52.1978 15.3345 52.3016 15.4588 52.399 15.6108L52.5761 15.887L52.7941 15.7425C52.9141 15.6631 53.0122 15.5746 53.0122 15.5459C53.0122 15.5172 52.9371 15.3845 52.8453 15.251C52.7535 15.1175 52.6785 14.9973 52.6785 14.9839C52.6785 14.9705 52.7783 14.8934 52.9003 14.8126L53.1222 14.6656L53.2942 14.9026C53.3888 15.033 53.4867 15.1759 53.5118 15.2203C53.5495 15.2871 53.5965 15.275 53.7853 15.1499C53.9107 15.0668 54.0133 14.986 54.0133 14.9704C54.0133 14.9547 53.8788 14.7408 53.7144 14.4951L53.4156 14.0483L52.2267 14.8368ZM7.97727 14.2021C7.59056 14.39 7.72226 14.9553 8.25891 15.411C8.92849 15.9797 9.58734 16.292 10.0182 16.2447C10.5354 16.188 10.5807 15.6981 10.1143 15.2032C9.91965 14.9965 9.90953 14.9929 9.71965 15.0616L9.52477 15.1322L9.7167 15.3449C9.91704 15.5668 9.96815 15.7749 9.82521 15.7869C9.77933 15.7907 9.71053 15.7982 9.67226 15.8036C9.50725 15.8269 8.71147 15.3634 8.45769 15.0963C8.31792 14.949 8.24468 14.7764 8.28116 14.6803C8.31214 14.5988 8.61981 14.5887 8.74067 14.6652C8.82933 14.7213 8.89596 14.624 8.90363 14.4269C8.91169 14.22 8.26397 14.0629 7.97727 14.2021ZM7.22059 15.3484C6.93728 15.8117 6.79445 16.0655 6.79695 16.1009C6.79851 16.1234 7.07565 16.3046 7.41275 16.5037C8.17838 16.9558 8.77265 17.4008 8.75513 17.5089C8.74679 17.5603 8.93138 17.7021 9.24662 17.8866C9.72315 18.1654 9.7558 18.1763 9.82827 18.0805C9.93989 17.9332 9.93322 17.9206 9.65836 17.7593C9.52071 17.6786 9.40808 17.5994 9.40808 17.5834C9.40808 17.5431 9.51203 17.3506 9.66765 17.1024L9.79852 16.8939L10.0597 17.0567C10.3184 17.2178 10.3217 17.2183 10.3996 17.1069C10.4663 17.0117 10.4666 16.9837 10.4021 16.9244C10.2225 16.7595 9.47193 16.3506 9.42816 16.3938C9.40174 16.4199 8.92293 16.1681 8.35991 15.8321C7.79868 15.4972 7.32999 15.2231 7.31837 15.2231C7.30669 15.2231 7.26269 15.2795 7.22059 15.3484ZM8.41492 16.2876C8.83884 16.5363 9.18561 16.7562 9.18561 16.7763C9.18561 16.8052 9.08467 16.9728 8.987 17.106C8.97983 17.1158 8.82705 17.0156 8.64746 16.8833C8.46792 16.7511 8.13967 16.5333 7.91798 16.3992C7.69634 16.2652 7.50179 16.1342 7.48566 16.1081C7.45391 16.0566 7.55513 15.8356 7.61047 15.8356C7.62905 15.8356 7.99106 16.039 8.41492 16.2876ZM54.0952 16.2278C54.0839 16.2461 53.7792 16.4331 53.4182 16.6434C53.0573 16.8536 52.7086 17.0594 52.6435 17.1007C52.5351 17.1694 52.5153 17.1603 52.4098 16.9936L52.2946 16.8115L52.9176 16.4991C53.2602 16.3274 53.6281 16.1331 53.7352 16.0673L53.9299 15.9478L54.0228 16.0711C54.074 16.1389 54.1066 16.2094 54.0952 16.2278ZM54.486 16.8321C54.2719 16.9471 53.6929 17.2491 53.1994 17.503L52.302 17.9647L52.3924 18.1222L52.4827 18.2798L53.5521 17.7282C54.3156 17.3344 54.6339 17.1959 54.6647 17.2438C54.7518 17.3792 54.8491 17.5785 54.8346 17.5918C54.8265 17.5992 54.3567 17.8442 53.7908 18.1361C53.2249 18.428 52.7549 18.7005 52.7464 18.7416C52.7379 18.7827 52.7633 18.8608 52.803 18.9151C52.8703 19.0073 52.9081 18.9968 53.3746 18.7564C53.6494 18.6149 54.2444 18.3099 54.6968 18.0787C55.1492 17.8474 55.5121 17.6411 55.5032 17.6203C55.3716 17.311 54.9755 16.616 54.9325 16.619C54.901 16.6212 54.7002 16.717 54.486 16.8321ZM6.36953 16.8768C6.17621 17.04 6.12476 17.1881 6.18522 17.4073C6.34389 17.9827 7.59117 18.7307 8.39173 18.7307C8.65124 18.7307 8.71642 18.7079 8.85619 18.568C9.04106 18.3829 9.05775 18.2452 8.92832 17.9721C8.79128 17.6831 8.38127 17.356 7.80235 17.074C7.36575 16.8614 7.21681 16.8166 6.88466 16.7984C6.56258 16.7808 6.46592 16.7955 6.36953 16.8768ZM7.72443 17.4504C8.35363 17.762 8.65024 18.1633 8.33744 18.2798C8.15085 18.3493 7.92237 18.2978 7.48928 18.0888C6.86369 17.7867 6.58772 17.4806 6.76469 17.2849C6.89923 17.1361 7.19139 17.1864 7.72443 17.4504ZM54.486 18.4847C53.0073 19.1514 52.9565 19.1754 52.9565 19.2103C52.9565 19.2363 53.0645 19.4597 53.0955 19.4979C53.1024 19.5065 53.293 19.4286 53.519 19.325L53.5506 19.3104C53.9094 19.1457 54.0267 19.0918 54.094 19.1289C54.1267 19.1468 54.1476 19.1862 54.1787 19.2447L54.1787 19.2448L54.1787 19.2449L54.1844 19.2556C54.2345 19.3497 54.3353 19.459 54.4086 19.4986C54.8255 19.7237 55.965 19.1658 55.9572 18.7404C55.9557 18.6585 55.8868 18.449 55.8042 18.2749L55.654 17.9581L54.486 18.4847ZM5.84189 18.1848C5.73366 18.2214 5.64979 18.3347 5.51614 18.625C5.41719 18.84 5.34511 19.0234 5.35602 19.0325C5.36692 19.0417 5.82632 19.2506 6.37693 19.4967C6.92754 19.7427 7.52487 20.0114 7.70435 20.0937C7.88383 20.1759 8.05046 20.2223 8.0746 20.1968C8.14929 20.1181 8.40697 19.4639 8.40697 19.3531C8.40697 19.0584 7.63133 18.5819 7.23772 18.6347C7.06152 18.6584 7.00268 18.6395 6.89556 18.5246C6.63166 18.2414 6.14161 18.0834 5.84189 18.1848ZM55.3724 18.859C55.3215 18.9918 54.9912 19.1407 54.8347 19.1014C54.7035 19.0684 54.5741 18.8338 54.6682 18.7995C54.6904 18.7915 54.8336 18.7263 54.9866 18.6548L55.2647 18.5247L55.3339 18.6517C55.372 18.7215 55.3893 18.8148 55.3724 18.859ZM6.54389 18.689C6.68016 18.8064 6.68461 18.8253 6.61514 18.9906L6.541 19.167L6.27687 19.0525C6.05296 18.9555 6.01825 18.9202 6.04873 18.8205C6.13622 18.5341 6.31052 18.4878 6.54389 18.689ZM7.67004 19.1198C7.76942 19.1805 7.85079 19.2544 7.85079 19.284C7.85079 19.3296 7.74506 19.607 7.70407 19.669C7.68444 19.6986 7.07215 19.4101 7.07215 19.3713C7.07215 19.3528 7.11036 19.2637 7.15702 19.1734C7.25824 18.9774 7.41058 18.9615 7.67004 19.1198ZM54.8576 19.8142C54.1137 20.1004 53.4933 20.3462 53.479 20.3605C53.4647 20.3749 53.4837 20.4542 53.5213 20.5369C53.5879 20.6831 53.5993 20.6862 53.9544 20.6555C54.155 20.6382 54.5319 20.6107 54.7919 20.5945L55.2647 20.565L54.5238 20.8531C53.8014 21.1339 53.7837 21.1448 53.8192 21.286C53.8391 21.3656 53.8641 21.4394 53.8747 21.45C53.8852 21.4606 54.4776 21.2454 55.191 20.9718C55.9045 20.6983 56.5311 20.459 56.5836 20.4403C56.6645 20.4112 56.6698 20.38 56.6186 20.2328C56.5616 20.0692 56.5455 20.0612 56.3286 20.0881C56.2023 20.1037 55.8487 20.1333 55.5428 20.1538C55.2369 20.1743 54.9616 20.2045 54.931 20.2207C54.8939 20.2404 54.8939 20.2307 54.931 20.1917C54.9616 20.1594 55.2932 20.0143 55.6679 19.8693C56.0426 19.7243 56.3492 19.5764 56.3492 19.5407C56.3492 19.505 56.318 19.4349 56.2797 19.3849C56.217 19.303 56.077 19.3452 54.8576 19.8142ZM5.24673 19.5767C5.11019 19.6137 5.04089 19.6775 4.98076 19.8216C4.87904 20.0652 4.94762 20.2313 5.25068 20.4753L5.45919 20.6431L5.59968 20.511L5.74017 20.3789L5.59973 20.2485C5.37226 20.0374 5.44206 19.9191 5.75902 19.9786C5.98616 20.0212 6.19712 20.2108 6.1573 20.3364C6.13477 20.4074 6.18761 20.4517 6.37598 20.5195C6.60924 20.6034 6.62632 20.6029 6.65546 20.511C6.69929 20.3728 6.85263 20.3478 7.08572 20.4409C7.2969 20.5252 7.3677 20.6247 7.31475 20.7629C7.28238 20.8472 7.2034 20.8671 6.97482 20.8486C6.82988 20.8368 6.80429 20.9857 6.92326 21.1486C7.01547 21.2748 7.44145 21.2955 7.64979 21.1839C7.98261 21.0056 7.92899 20.4967 7.55174 20.2522C7.22287 20.0392 6.59306 19.9155 6.46909 20.0397C6.45746 20.0513 6.3875 19.9888 6.31353 19.9008C6.09673 19.6429 5.58099 19.4862 5.24673 19.5767ZM4.68099 20.7619C4.64973 20.8441 4.63599 20.9305 4.6504 20.9539C4.66486 20.9773 4.96497 21.1927 5.31736 21.4327C5.6697 21.6726 5.94962 21.8774 5.93928 21.8877C5.92899 21.898 5.60379 21.8044 5.21664 21.6797C4.82948 21.5549 4.49094 21.4664 4.4643 21.4828C4.43772 21.4993 4.40234 21.5647 4.38577 21.6282C4.36413 21.7111 4.38966 21.7577 4.47643 21.7937C4.85134 21.9495 7.16164 22.6653 7.19334 22.6356C7.21414 22.6161 7.24529 22.5376 7.26264 22.461C7.291 22.3356 7.24056 22.2861 6.75213 21.9599C6.45402 21.7609 6.17698 21.5667 6.13661 21.5284C6.09617 21.4902 6.03566 21.4588 6.00218 21.4588C5.9687 21.4588 5.95635 21.4437 5.97482 21.4252C5.99334 21.4067 6.32504 21.4973 6.71202 21.6263C7.09901 21.7554 7.43566 21.8394 7.46008 21.8131C7.48455 21.7867 7.51976 21.7145 7.53833 21.6526C7.56931 21.5493 7.46336 21.505 6.25151 21.1143C5.52515 20.88 4.88744 20.6713 4.83432 20.6504C4.76274 20.6222 4.72309 20.6511 4.68099 20.7619ZM55.8035 21.0475C55.4964 21.1969 55.3816 21.2861 55.3346 21.4116C55.305 21.4905 55.2059 21.5025 54.6318 21.4969C54.2642 21.4933 53.9494 21.5042 53.9325 21.5212C53.9155 21.5382 53.9291 21.6314 53.9628 21.7282L54.0242 21.9043L54.6166 21.9051C55.5455 21.9064 55.5908 22.0191 54.7624 22.2681L54.2266 22.4292L54.2596 22.5941C54.2777 22.6849 54.2994 22.766 54.3079 22.7745C54.3163 22.7829 54.7853 22.6407 55.3501 22.4584C55.9149 22.2761 56.546 22.0733 56.7524 22.0079C56.9589 21.9423 57.1279 21.8586 57.1279 21.8217C57.1279 21.6867 56.9018 21.1017 56.8106 21.0009C56.6774 20.8535 56.1521 20.8779 55.8035 21.0475ZM56.4304 21.4722C56.472 21.5714 56.4962 21.6686 56.4841 21.6882C56.4538 21.7373 55.8977 21.9162 55.868 21.8864C55.8547 21.8732 55.8292 21.7717 55.8112 21.661C55.7808 21.4732 55.7914 21.454 55.9666 21.3778C56.2549 21.2526 56.3459 21.2711 56.4304 21.4722ZM56.8552 22.1991C56.7647 22.2281 56.7173 22.2433 56.6992 22.2752C56.6794 22.3103 56.6952 22.3656 56.7286 22.482L56.7314 22.4919L56.78 22.6612L56.2726 22.7898C55.4544 22.9972 54.4876 23.2556 54.4668 23.2725C54.4563 23.2812 54.4639 23.3622 54.4837 23.4528L54.5198 23.6173L54.9479 23.507C55.1833 23.4464 55.4134 23.3887 55.4593 23.379C55.5052 23.3693 55.8247 23.284 56.1694 23.1895C56.514 23.0951 56.8178 23.0178 56.8445 23.0178C56.8712 23.0178 56.9098 23.1076 56.9304 23.2173C56.9561 23.3543 56.9916 23.4077 57.0439 23.3876C57.0857 23.3715 57.2093 23.3416 57.3186 23.321C57.4278 23.3006 57.5172 23.2714 57.5172 23.2562C57.5172 23.2307 57.4175 22.8284 57.2892 22.3357C57.2306 22.1107 57.181 22.0945 56.8637 22.1964L56.8552 22.1991ZM4.41992 22.3537C4.0034 22.4783 3.90434 22.9232 4.21964 23.2529C4.70468 23.76 6.2539 24.104 6.74996 23.8149C7.11219 23.6037 7.14501 23.2663 6.83355 22.9545C6.38255 22.503 5.03866 22.1684 4.41992 22.3537ZM5.82076 22.827C6.34389 23.0047 6.59039 23.2859 6.37793 23.4623C6.11881 23.6776 4.86536 23.3732 4.64545 23.0415C4.58188 22.9458 4.58432 22.9098 4.66185 22.799C4.74684 22.6775 4.77904 22.671 5.14778 22.7007C5.36497 22.7182 5.66781 22.775 5.82076 22.827ZM57.348 23.5391C57.334 23.5527 57.2349 23.5779 57.1279 23.595C57.0208 23.612 56.6329 23.69 56.2658 23.7683C55.8987 23.8466 55.5483 23.92 55.4871 23.9315C54.7162 24.0768 54.6807 24.089 54.6815 24.2081C54.6831 24.4211 54.7554 24.4553 55.2929 24.4971C55.5833 24.5197 55.8834 24.5444 55.9599 24.5519C56.0364 24.5595 56.1615 24.5701 56.238 24.5756L56.377 24.5855L56.238 24.6314C56.1615 24.6567 55.8174 24.7354 55.4732 24.8065C54.894 24.926 54.8475 24.9452 54.8475 25.0641C54.8475 25.2325 54.9632 25.2709 55.2518 25.1985C55.3812 25.166 55.5747 25.1242 55.6818 25.1055C55.7889 25.0869 55.9766 25.0493 56.0989 25.0221C56.2213 24.9949 56.409 24.9576 56.5161 24.9392C56.6231 24.9209 56.7983 24.8831 56.9054 24.8552C57.0125 24.8274 57.1626 24.7935 57.2391 24.7799C57.7774 24.6839 57.7953 24.6767 57.7944 24.5566C57.7929 24.3454 57.721 24.3117 57.1835 24.2704C56.8929 24.2481 56.5925 24.2227 56.5161 24.2139C56.4396 24.2052 56.3019 24.1934 56.2102 24.1879C56.0806 24.18 56.1157 24.1601 56.3675 24.0991C56.5458 24.0559 56.746 24.0105 56.8125 23.9983C57.6249 23.8485 57.6351 23.8446 57.6175 23.692C57.6062 23.5952 57.5627 23.5412 57.4871 23.5304C57.4246 23.5215 57.3621 23.5254 57.348 23.5391ZM4.08399 23.8074C3.8722 23.8641 3.79528 23.9895 3.70373 24.4277C3.65329 24.669 3.65217 24.7572 3.69945 24.7727C3.76119 24.7931 5.40351 25.1219 5.68171 25.1696C5.75819 25.1828 5.8583 25.2042 5.90418 25.2171C5.95007 25.2302 6.0752 25.2552 6.18227 25.2726C6.28933 25.2901 6.41853 25.3171 6.46937 25.3325C6.53727 25.3531 6.57187 25.3146 6.59979 25.1874L6.60079 25.1828C6.62238 25.0844 6.63328 25.0348 6.61367 25.0057C6.59366 24.976 6.54187 24.9676 6.43724 24.9509L6.43255 24.9501C6.34078 24.9354 6.10769 24.8919 5.91453 24.8535L5.56336 24.7835L5.59995 24.5669C5.64584 24.2949 5.54039 24.1193 5.23833 23.965C4.91425 23.7996 4.38371 23.7271 4.08399 23.8074ZM4.99117 24.3232C5.02598 24.3708 5.04306 24.4696 5.0291 24.5427C5.00407 24.6739 4.99995 24.6747 4.70312 24.6056C4.53777 24.5671 4.40251 24.5499 4.40251 24.5673C4.40251 24.5847 4.37431 24.5707 4.33983 24.5362C4.25334 24.4496 4.32548 24.1997 4.44428 24.1743C4.59979 24.141 4.92226 24.2288 4.99117 24.3232ZM57.3781 25.0785C57.2558 25.1028 57.0205 25.1398 56.8552 25.1607C56.69 25.1817 56.5033 25.2087 56.4403 25.2209C56.3774 25.233 56.2247 25.2573 56.1012 25.2749C55.8748 25.3072 55.8048 25.3172 55.3481 25.3836L55.3034 25.39L55.2587 25.3961L55.2574 25.3963C55.1064 25.417 55.023 25.4285 54.9834 25.4762C54.9345 25.5351 54.9523 25.6494 54.9921 25.9045L54.9927 25.9082L55.002 25.968L55.0113 26.0287L55.0963 26.5897L55.3473 26.5521C55.4854 26.5314 55.6125 26.5058 55.6297 26.4952C55.647 26.4845 55.6366 26.3116 55.6067 26.1108C55.5767 25.91 55.5626 25.736 55.5753 25.7241C55.588 25.7122 55.7403 25.6862 55.9137 25.6663L55.9445 25.6627C56.0854 25.6464 56.1622 25.6375 56.2099 25.6706C56.2672 25.7103 56.2827 25.8102 56.3167 26.03L56.3229 26.0699L56.3603 26.3103L56.6176 26.2754C56.7591 26.2562 56.8853 26.23 56.898 26.2172C56.9107 26.2045 56.8969 26.0431 56.8672 25.8586C56.8292 25.6226 56.831 25.5224 56.8732 25.5204C56.9062 25.5188 57.0374 25.5042 57.1647 25.4879L57.3961 25.4583L57.4354 25.8255L57.4747 26.1926L57.7323 26.1589C57.874 26.1404 58.0039 26.1087 58.021 26.0886C58.038 26.0685 58.0163 25.8203 57.9728 25.5371L57.9655 25.4895V25.4895C57.9252 25.2258 57.9057 25.0978 57.8328 25.0483C57.7639 25.0015 57.6476 25.0248 57.4213 25.0699L57.3781 25.0785ZM3.56725 25.1163C3.56669 25.141 3.52959 25.3993 3.48482 25.6902C3.44005 25.9811 3.40295 26.2339 3.4024 26.2519C3.40184 26.27 3.62042 26.3169 3.88805 26.3562C4.15574 26.3956 4.41224 26.4342 4.45813 26.4422C4.50401 26.4501 4.67921 26.475 4.84745 26.4975C5.01569 26.52 5.19333 26.5458 5.24222 26.5549C5.49144 26.6011 5.95735 26.6544 6.15446 26.6591C6.35552 26.664 6.3786 26.6503 6.39406 26.5166L6.3955 26.5043C6.39993 26.4672 6.40331 26.4388 6.39397 26.4155C6.36364 26.3399 6.19936 26.318 5.50216 26.2254L5.43143 26.216C5.27848 26.1956 5.10668 26.1701 5.04962 26.1592C4.99256 26.1484 4.80991 26.1237 4.64372 26.1042C4.11686 26.0426 4.03944 26.0064 4.05284 25.8277C4.0737 25.5503 4.09578 25.5323 4.35657 25.5799C4.48894 25.604 4.72231 25.6401 4.87526 25.66C5.21875 25.7047 5.4994 25.7455 5.68171 25.7771C5.75819 25.7904 5.97721 25.8169 6.16836 25.8361L6.51597 25.8709V25.6971C6.51597 25.5974 6.48633 25.5214 6.44645 25.5189C6.40824 25.5166 6.32687 25.5053 6.26569 25.4939C6.20452 25.4824 6.04183 25.4579 5.90418 25.4395C5.67431 25.4086 5.49912 25.3836 5.12554 25.3283C5.04906 25.3169 4.86135 25.2903 4.70841 25.2691C4.55546 25.2479 4.38026 25.221 4.31908 25.2094C4.2579 25.1978 4.08271 25.173 3.92976 25.1543C3.77681 25.1356 3.63293 25.1093 3.60996 25.0958C3.58699 25.0823 3.5678 25.0915 3.56725 25.1163ZM4.18004 27.8656C3.23132 28.1377 2.63554 28.9657 2.71452 29.9026C2.84678 31.4714 4.73093 32.2197 5.89979 31.1677C6.9187 30.2506 6.67754 28.5933 5.43989 28.0072C5.09078 27.8419 4.496 27.775 4.18004 27.8656ZM56.3188 27.913C55.93 28.0412 55.6599 28.2192 55.4326 28.4969C55.0215 28.9992 54.882 29.5912 55.0345 30.1869C55.1941 30.8108 55.5394 31.2261 56.1196 31.4923C57.5419 32.1446 59.1095 30.8534 58.7699 29.3092C58.5363 28.247 57.3517 27.5722 56.3188 27.913ZM2.89188 32.6215C2.85195 32.6615 3.09861 34.3931 3.26463 35.2381C4.34027 40.7123 6.9707 45.6647 10.9166 49.6448L11.8411 50.5774H14.9906C16.7228 50.5774 18.14 50.5671 18.14 50.5545C18.14 50.542 17.9711 50.4254 17.7646 50.2954C17.1375 49.9008 16.3139 49.3031 15.5816 48.7112C11.8797 45.7191 9.19629 41.8036 7.72193 37.243C7.30402 35.9502 6.90713 34.1591 6.76275 32.9142L6.72565 32.594H4.82248C3.77576 32.594 2.90701 32.6064 2.89188 32.6215ZM10.1672 32.692C10.1343 32.7452 10.3574 34.0189 10.5157 34.6819C11.7479 39.8404 14.9097 44.3532 19.326 47.2568C20.6598 48.1339 21.6673 48.665 23.0165 49.2026C24.3689 49.7414 25.5915 50.1 26.9276 50.3498C27.2794 50.4155 27.611 50.4787 27.6645 50.4903C27.7376 50.506 27.7625 50.4744 27.7646 50.3633C27.7709 50.0155 27.7555 48.6039 27.7453 48.5942C27.7391 48.5884 27.6385 48.5686 27.5216 48.5502C25.0018 48.1533 22.1059 46.9517 19.9074 45.3908C18.2884 44.2413 16.8489 42.8586 15.7115 41.3604C13.9854 39.0867 12.7281 36.3083 12.2107 33.624C12.1339 33.226 12.0596 32.8439 12.0456 32.775C12.0203 32.6512 12.0091 32.6497 11.1066 32.6497C10.6043 32.6497 10.1816 32.6687 10.1672 32.692ZM23.0065 51.8346C22.2419 51.9506 21.725 52.2067 21.3154 52.6725C20.8808 53.1668 20.682 53.7896 20.6861 54.6434C20.6905 55.5488 20.9176 56.1826 21.4242 56.7042C21.9886 57.2851 22.6173 57.5027 23.7296 57.5019C24.6875 57.5013 25.2288 57.3154 25.7393 56.8118C25.984 56.5704 26.2695 56.0813 26.3592 55.7497L26.4135 55.5493L25.6014 55.3194C25.1548 55.193 24.7743 55.1078 24.7558 55.1301C24.7374 55.1524 24.6869 55.2831 24.6436 55.4206C24.5474 55.7267 24.2273 56.0592 23.9816 56.1084C23.0334 56.2982 22.5893 55.8392 22.5805 54.6601C22.5758 54.0431 22.6553 53.7458 22.8963 53.4788C23.389 52.9328 24.3418 53.0723 24.6186 53.7308C24.6901 53.9009 24.6985 53.9043 24.9339 53.8587C25.6511 53.7198 26.2925 53.5723 26.3256 53.5386C26.3766 53.4866 26.077 52.898 25.8595 52.6231C25.3329 51.9573 24.2217 51.6503 23.0065 51.8346ZM35.6973 51.8668C35.6476 51.8947 35.6324 53.2106 35.6345 57.2952L35.6373 62.6869L37.0388 62.7017L38.4404 62.7166L38.4451 62.5904C38.4477 62.521 38.4519 60.6916 38.4543 58.5251L38.4587 54.586H40.563H42.6673V53.222C42.6673 52.17 42.6514 51.857 42.5978 51.8539C42.1443 51.8278 35.7455 51.8398 35.6973 51.8668ZM45.555 51.8589C45.4508 51.8836 45.1197 52.6742 43.2813 57.2873L41.1295 62.6869L42.602 62.7017C43.4118 62.7099 44.0852 62.7058 44.0984 62.6926C44.1115 62.6794 44.3046 62.1967 44.5275 61.6199L44.9326 60.5712H46.9242H48.9158L49.3429 61.629L49.7698 62.6869L51.2241 62.7017C52.024 62.7099 52.6785 62.7055 52.6785 62.6921C52.6785 62.6571 48.3886 51.89 48.3646 51.8647C48.3335 51.8319 45.6921 51.8265 45.555 51.8589ZM51.0733 51.846C51.047 51.8548 51.1873 52.3685 51.3851 52.9874C51.5829 53.6064 51.7744 54.213 51.8108 54.3355L51.8768 54.5582L53.974 54.5728L56.0711 54.5874L56.0712 55.3244L56.0712 56.0614H55.4177H54.7641L54.7489 57.0636L54.7337 58.0658L55.4024 58.0486L56.0711 58.0314V59.123V60.2145L55.1233 61.4404L54.1755 62.6663L54.9047 64.3469C55.3057 65.2712 55.6514 66.0454 55.6727 66.0674C55.6941 66.0895 55.8989 65.832 56.1277 65.4953C56.3566 65.1587 56.7316 64.6086 56.961 64.2731C58.7285 61.6879 59.6863 60.2614 59.6863 60.2138C59.6863 60.183 59.3871 59.6745 59.0216 59.0838L58.357 58.0098L58.3246 57.0634L58.2923 56.1171L58.4759 55.9222C58.5769 55.8151 58.8843 55.4768 59.159 55.1706C59.4337 54.8644 59.671 54.6013 59.6863 54.586C59.7016 54.5707 59.7141 53.9506 59.7141 53.208C59.7141 52.0468 59.7024 51.8573 59.6306 51.8539C59.3523 51.8406 51.1124 51.833 51.0733 51.846ZM2.90084 54.6452V57.4336L4.83355 57.4109C6.8004 57.3876 6.90135 57.3798 7.31141 57.2198C8.02493 56.9413 8.31687 56.5257 8.31765 55.7872C8.31837 55.0498 8.04779 54.5915 7.43366 54.2903C6.95619 54.0562 6.47387 53.9788 5.47315 53.9757L4.79183 53.9736V53.5291V53.0846L6.33522 53.0698L7.8786 53.0549V52.4703V51.8857L5.38972 51.8713L2.90084 51.8567V54.6452ZM9.18561 54.6391V57.4255H10.1311H11.0766V56.4094V55.3933L11.7023 55.3961C13.3953 55.4036 14.1106 54.9121 14.1769 53.6957C14.217 52.9596 14.009 52.5036 13.4822 52.1723C13.0632 51.9088 12.7364 51.8696 10.8843 51.8608L9.18561 51.8528V54.6391ZM15.0254 54.6417V57.4255H17.5282H20.031V56.7583V56.0911L18.4876 56.0762L16.9442 56.0614V55.5882V55.1149H18.3069H19.6695L19.6853 54.5164L19.7011 53.9179L18.3922 53.911C17.6723 53.9071 17.052 53.9009 17.0138 53.897C16.9675 53.8924 16.9387 53.7642 16.9278 53.5143L16.9114 53.1385H18.4156H19.9198V52.4982V51.8579H17.4726H15.0254V54.6417ZM26.7607 52.5812V53.3055H27.6784H28.5961V55.3655V57.4255H29.5416H30.4871V55.3655V53.3055H31.4065H32.3258L32.3102 52.5956L32.2947 51.8857L29.5277 51.8713L26.7607 51.8568V52.5812ZM12.0808 53.1697C12.3521 53.3067 12.4348 53.691 12.2449 53.9327C12.1018 54.1148 11.9151 54.1757 11.452 54.1913L11.0766 54.204V53.6398V53.0755L11.5076 53.0867C11.7447 53.0929 12.0026 53.1302 12.0808 53.1697ZM6.14678 55.2516C6.39406 55.3333 6.48227 55.4817 6.43461 55.7359C6.37548 56.0515 6.1781 56.1309 5.42693 56.1413L4.79183 56.1501V55.6789C4.79183 55.361 4.81363 55.2005 4.8588 55.1854C4.99929 55.1385 5.95285 55.1875 6.14678 55.2516ZM47.4595 56.9329C47.759 57.6713 47.9901 58.298 47.9731 58.3256C47.956 58.3532 47.4541 58.373 46.8577 58.3695C45.8682 58.3639 45.7765 58.3552 45.8098 58.2702C45.8298 58.219 46.0741 57.5825 46.3526 56.8557C46.6311 56.129 46.8716 55.5469 46.887 55.5624C46.9024 55.5778 47.16 56.1946 47.4595 56.9329ZM20.5253 58.4008C19.4623 58.6788 18.8757 59.5255 18.9459 60.681C19.0095 61.7284 19.5201 62.4056 20.4197 62.6357C20.9491 62.7711 22.1196 62.7263 22.5015 62.5561C23.0768 62.2998 23.4533 61.8602 23.6143 61.2569C23.7314 60.8181 23.6947 59.9849 23.5406 59.5864C23.3036 58.973 22.7093 58.5119 21.9736 58.3705C21.5939 58.2976 20.8616 58.3129 20.5253 58.4008ZM24.3692 60.5449V62.7179L25.8291 62.7115C27.4027 62.7047 27.7037 62.6607 28.1175 62.3768C28.5437 62.0845 28.7047 61.5117 28.5185 60.9505C28.2978 60.2855 27.7097 60.0266 26.3992 60.0178C26.1239 60.0159 25.8851 59.9963 25.8686 59.9743C25.8444 59.9421 25.8427 59.5562 25.8659 59.3602C25.8686 59.3373 26.4102 59.3185 27.0695 59.3185H28.2681L28.2577 58.8452L28.2473 58.372H26.3082H24.3692V60.5449ZM29.5353 58.3859C29.5318 58.3936 29.5243 59.0983 29.5186 59.952C29.5083 61.5009 29.5081 61.5043 29.3798 61.6083C29.2997 61.6732 29.163 61.7125 29.0176 61.7125H28.7839L28.7873 62.1812C28.7892 62.4389 28.8084 62.6674 28.83 62.689C28.8736 62.7327 29.6665 62.7281 29.9801 62.6824C30.3423 62.6296 30.6696 62.4243 30.8206 62.155C30.9542 61.9168 30.9602 61.8633 30.9793 60.7382C30.9902 60.0952 31.0205 59.5557 31.0466 59.5393C31.0727 59.523 31.2892 59.5109 31.5275 59.5124L31.961 59.5151L31.9757 61.1149L31.9905 62.7147H32.7404H33.4904V60.5434V58.372H31.516C30.4301 58.372 29.5388 58.3782 29.5353 58.3859ZM21.6003 59.4235C21.7801 59.4354 22.071 59.7516 22.1448 60.0157C22.2382 60.3495 22.1891 61.0908 22.059 61.3112C21.7695 61.802 20.8885 61.8054 20.5918 61.317C20.3511 60.9208 20.3943 59.9856 20.6679 59.6671C20.8146 59.4964 21.0966 59.3858 21.338 59.4044C21.4298 59.4115 21.5478 59.4201 21.6003 59.4235ZM26.96 61.0469C27.0606 61.1008 27.0944 61.1653 27.0944 61.3031C27.0944 61.5801 26.9136 61.6723 26.3394 61.6879L25.8708 61.7007V61.354C25.8708 61.1633 25.8832 60.9949 25.8984 60.9797C25.9556 60.9225 26.8312 60.9779 26.96 61.0469ZM49.4497 33.3531C49.5133 33.0204 49.579 32.726 49.5957 32.6989C49.6124 32.6719 50.0375 32.6497 50.5405 32.6497C51.2973 32.6497 51.4549 32.6635 51.4549 32.7295C51.4549 32.9023 51.1621 34.384 51.004 35.011C50.1127 38.5475 48.2362 41.8651 45.6474 44.4812C42.7051 47.4546 39.155 49.4022 35.1033 50.2656C34.7516 50.3405 34.3761 50.4147 34.2691 50.4303L33.838 50.4929L33.6017 50.5271V49.5828V48.6385L33.838 48.5992C35.2495 48.3646 37.1028 47.8344 38.1623 47.3622C39.9399 46.57 41.3106 45.7467 42.6951 44.6395C43.2426 44.2017 44.8168 42.6857 45.1724 42.2538C46.3323 40.8452 46.9878 39.865 47.7023 38.4703C48.5269 36.8608 49.1005 35.181 49.4497 33.3531ZM54.8846 32.6312C54.8642 32.6516 54.8475 32.7338 54.8475 32.814C54.8475 33.1359 54.5528 34.7401 54.3202 35.684C52.8763 41.5447 49.3579 46.5546 44.2564 50.0143L43.426 50.5774H46.5865H49.747L50.587 49.7406C54.9299 45.4145 57.7361 39.8184 58.5712 33.8189C58.633 33.3749 58.6967 32.9177 58.7128 32.8028L58.7421 32.594H56.8319C55.7813 32.594 54.905 32.6107 54.8846 32.6312ZM5.15446 60.6216C4.19022 59.4399 3.41141 58.4565 3.42381 58.4364C3.44088 58.4088 17.8926 58.3947 18.0983 58.4221C18.1213 58.4252 18.14 59.4048 18.14 60.599V62.7704H12.5238H6.90769L5.15446 60.6216ZM7.9167 64.0092C8.05213 64.17 8.49501 64.7086 8.90096 65.2062L9.63895 66.1109H31.9096C47.4273 66.1109 54.1801 66.0932 54.1801 66.0525C54.1801 66.0203 53.9617 65.4816 53.6948 64.8555L53.2094 63.7169H30.4399H7.67042L7.9167 64.0092ZM30.0186 13.4137C30.174 12.9482 30.5756 12.0928 30.7813 11.7889L30.9013 11.6117L31.1013 11.9281C31.4269 12.443 32.1325 13.0086 33.1289 13.553C33.7764 13.9069 34.0258 14.0428 34.714 14.4172C36.2808 15.2695 37.0627 15.768 38.1039 16.5784C38.7178 17.0561 40.1227 18.4007 40.4266 18.8014C40.5249 18.9309 40.6683 19.1121 40.7453 19.204C40.9351 19.4302 40.9471 19.4464 41.1378 19.7329C41.2296 19.8707 41.3234 19.9918 41.3464 20.002C41.3694 20.0122 41.3881 20.0426 41.3881 20.0696C41.3881 20.0966 41.5026 20.3075 41.6426 20.5382C42.1117 21.3118 42.5309 22.4038 42.7205 23.346C42.8665 24.0722 42.904 24.4411 42.9048 25.1613C42.9058 26.071 42.8165 26.7271 42.5295 27.9173C42.415 28.3919 41.7755 30.0549 41.5529 30.4571C41.3959 30.7406 40.7388 31.7328 40.6465 31.8256C40.6069 31.8655 40.5511 31.9386 40.5224 31.988C40.4641 32.0889 40.3436 32.2425 39.3487 33.4848C39.1041 33.7902 38.6876 34.2968 38.662 34.32C38.5505 34.4209 36.472 37.058 35.9644 37.7427C33.4446 41.1414 32.0973 43.9148 31.6872 46.5475C31.6389 46.8574 31.5994 47.2018 31.5994 47.313C31.5994 47.4242 31.5774 47.5152 31.5505 47.5152C31.5236 47.5152 31.3546 47.3501 31.1751 47.1482C29.7335 45.5275 29.0745 43.9354 29.126 42.1981C29.164 40.9188 29.4354 40.0419 30.6962 37.1248C31.4835 35.303 31.7696 34.4307 31.9545 33.2883C32.0552 32.6653 32.0586 31.586 31.9615 31.0342C31.8743 30.539 31.7332 29.9812 31.6821 29.9302C31.6339 29.8818 30.6685 30.8869 29.8188 31.8702C29.5299 32.2046 28.6603 33.3579 28.3603 33.8045C27.0976 35.6844 26.474 37.4169 26.4611 39.0803C26.451 40.3752 26.547 40.8372 27.3172 43.2003C27.5568 43.9352 27.7911 44.7244 27.838 44.9541C27.9633 45.5683 28.0083 46.0676 27.9381 46.0676C27.8536 46.0676 26.4684 45.4316 26.0099 45.1823C25.2201 44.7528 25.05 44.651 24.3692 44.1997C23.433 43.5792 22.8523 43.1062 22.0854 42.3398C20.4074 40.6627 19.4436 38.8081 19.1183 36.6305C19.0197 35.9704 19.0224 34.3778 19.1232 33.7076C19.4332 31.6464 20.2607 29.7512 21.6635 27.8894C21.848 27.6444 22.0133 27.4315 22.0309 27.4162C22.0483 27.4009 22.1747 27.2505 22.3118 27.0821C22.4488 26.9137 22.6528 26.6757 22.7652 26.5532C22.8775 26.4307 23.0379 26.2553 23.1217 26.1635C23.2055 26.0716 23.6299 25.6206 24.0647 25.1613C25.1984 23.9639 25.34 23.8061 25.8951 23.1227C27.227 21.4828 28.5779 18.8831 29.103 16.9491C29.1404 16.8113 29.1784 16.6735 29.1873 16.6429C29.2325 16.4883 29.3665 15.9321 29.4087 15.7242C29.4965 15.2904 29.8915 13.7944 30.0186 13.4137Z" fill="#8BB174"/>
</svg>
