<svg width="63.3" height="30" viewBox="0 0 38 18" fill="none" xmlns="http://www.w3.org/2000/svg">
    <path d="M15.5455 0.363647H1.72727C0.773358 0.363647 0 1.13701 0 2.09092C0 3.04484 0.773358 3.81819 1.72727 3.81819H15.5455C16.4994 3.81819 17.2727 3.04484 17.2727 2.09092C17.2727 1.13701 16.4994 0.363647 15.5455 0.363647Z" fill="white"/>
    <path d="M15.5455 7.27271H1.72727C0.773358 7.27271 0 8.04606 0 8.99998C0 9.95389 0.773358 10.7273 1.72727 10.7273H15.5455C16.4994 10.7273 17.2727 9.95389 17.2727 8.99998C17.2727 8.04606 16.4994 7.27271 15.5455 7.27271Z" fill="white"/>
    <path d="M15.5455 14.1819H1.72727C0.773358 14.1819 0 14.9552 0 15.9092C0 16.8631 0.773358 17.6364 1.72727 17.6364H15.5455C16.4994 17.6364 17.2727 16.8631 17.2727 15.9092C17.2727 14.9552 16.4994 14.1819 15.5455 14.1819Z" fill="white"/>
    <path d="M37.8685 4.88454C37.6011 4.23912 36.9714 3.81824 36.2727 3.81824H22.4545C21.7559 3.81824 21.1262 4.23912 20.8588 4.88454C20.5915 5.52996 20.7393 6.27292 21.2333 6.76692L28.1423 13.676C28.4795 14.0133 28.9216 14.1819 29.3636 14.1819C29.8057 14.1819 30.2478 14.0133 30.5849 13.6759L37.494 6.76681C37.9881 6.27292 38.1359 5.52996 37.8685 4.88454Z" fill="white"/>
</svg>
