<svg width="31" height="30" viewBox="0 0 31 30" fill="none" xmlns="http://www.w3.org/2000/svg">
    <path fill-rule="evenodd" clip-rule="evenodd" d="M30.8485 0H0.848511V30H30.8485V0ZM3.80603 26.388V24.75H5.5066V28C5.03117 28 4.62889 27.844 4.29974 27.532C3.9706 27.22 3.80603 26.8387 3.80603 26.388ZM4.05289 22.904C3.88832 22.7307 3.80603 22.54 3.80603 22.332C3.80603 22.124 3.88832 21.9333 4.05289 21.76C4.21746 21.5867 4.4186 21.5 4.65632 21.5H6.35689C6.55803 21.5173 6.75917 21.604 6.96032 21.76C7.16146 21.916 7.25289 22.1067 7.2346 22.332C7.21632 22.5573 7.12489 22.748 6.96032 22.904C6.79574 23.06 6.5946 23.138 6.35689 23.138H4.65632C4.4186 23.1553 4.21746 23.0773 4.05289 22.904ZM5.5066 19.888H3.80603V10.138H5.5066V19.888ZM4.05289 8.266C3.88832 8.11 3.80603 7.91933 3.80603 7.694C3.80603 7.46867 3.88832 7.278 4.05289 7.122C4.21746 6.966 4.4186 6.888 4.65632 6.888H6.35689C6.55803 6.888 6.75917 6.966 6.96032 7.122C7.16146 7.278 7.25289 7.46867 7.2346 7.694C7.21632 7.91933 7.12489 8.11 6.96032 8.266C6.79574 8.422 6.5946 8.5 6.35689 8.5H4.65632C4.4186 8.5 4.21746 8.422 4.05289 8.266ZM5.5066 5.25H3.80603V3.638C3.80603 3.20467 3.9706 2.82333 4.29974 2.494C4.62889 2.16467 5.03117 2 5.5066 2V5.25ZM7.2346 26.388V24.75C7.71003 24.75 8.11232 24.594 8.44146 24.282C8.7706 23.97 8.93517 23.5887 8.93517 23.138V21.5C8.95346 21.0493 8.78889 20.668 8.44146 20.356C8.09403 20.044 7.69174 19.888 7.2346 19.888V10.138C7.71003 10.1553 8.11232 9.99933 8.44146 9.67C8.7706 9.34067 8.93517 8.95067 8.93517 8.5V6.888C8.95346 6.45467 8.78889 6.07333 8.44146 5.744C8.09403 5.41467 7.69174 5.25 7.2346 5.25V3.638C7.2346 3.20467 7.39917 2.82333 7.72832 2.494C8.05746 2.16467 8.45974 2 8.93517 2H26.078C26.5352 2.01733 26.9375 2.182 27.2849 2.494C27.6323 2.806 27.806 3.18733 27.806 3.638V26.388C27.7877 26.8387 27.614 27.22 27.2849 27.532C26.9557 27.844 26.5535 28 26.078 28H8.93517C8.45974 28 8.05746 27.844 7.72832 27.532C7.39917 27.22 7.2346 26.8387 7.2346 26.388ZM13.2689 17.08C12.7935 17.6867 12.4917 18.354 12.3637 19.082C12.3455 19.758 12.5923 20.33 13.1043 20.798C13.6163 21.266 14.2289 21.5 14.942 21.5H20.0712C20.8026 21.5 21.4152 21.266 21.9089 20.798C22.4026 20.33 22.6495 19.758 22.6495 19.082C22.5397 18.354 22.238 17.6867 21.7443 17.08C21.2506 16.4733 20.6655 15.988 19.9889 15.624C20.6289 15 20.9489 14.2547 20.9489 13.388V11.75C20.9123 10.866 20.574 10.1033 19.934 9.462C19.294 8.82067 18.4895 8.5 17.5203 8.5C16.5512 8.5 15.7375 8.82067 15.0792 9.462C14.4209 10.1033 14.0917 10.866 14.0917 11.75V13.388C14.0917 14.2547 14.4026 15 15.0243 15.624C14.3295 15.988 13.7443 16.4733 13.2689 17.08Z" fill="white"/>
</svg>
