<svg width="30" height="30" viewBox="0 0 30 30" fill="none" xmlns="http://www.w3.org/2000/svg"> <path fill-rule="evenodd" clip-rule="evenodd" d="M30 0H0V30H30V0ZM16.0026 2.24582C15.6797 1.91806 15.1563 1.91806 14.8335 2.24582L8.30336 8.87964V7.79285C8.30336 7.35814 7.95639 7.00555 7.52836 7.00555C7.10034 7.00555 6.75337 7.35814 6.75337 7.79285V10.454L3.65329 13.6032L3.66857 13.619H5.82325V21.5968H2.93C2.41639 21.5968 2 22.0197 2 22.5414C2 23.0632 2.41639 23.4861 2.93 23.4861H5.82325V27.2653C5.82325 27.671 6.1471 28 6.54659 28C6.94608 28 7.26991 27.671 7.26991 27.2653V23.7629H27.1034C27.5986 23.7629 28 23.3615 28 22.8664C28 22.3712 27.5986 21.9698 27.1034 21.9698H24.9667V13.619L27.2305 13.6032L16.4927 2.69529C16.3863 2.5871 16.2674 2.49932 16.1409 2.4317C16.1044 2.36507 16.0583 2.30262 16.0026 2.24582Z" fill="white"/> </svg>