<svg width="31" height="30" viewBox="0 0 31 30" fill="none" xmlns="http://www.w3.org/2000/svg">
    <path fill-rule="evenodd" clip-rule="evenodd" d="M30.8485 0H0.848511V30H30.8485V0ZM3.80603 28V2H27.806V28H3.80603ZM25.806 4H5.80603V26H25.806V4ZM7.80603 10V6H23.806V10H7.80603ZM7.80603 13V12H13.806V13H7.80603ZM17.806 21V20H23.806V21H17.806ZM7.80603 15V14H13.806V15H7.80603ZM17.806 23V22H23.806V23H17.806ZM7.80603 17V16H13.806V17H7.80603ZM7.80603 19V18H13.806V19H7.80603ZM23.806 18H17.806V12H23.806V18ZM7.80603 21V20H13.806V21H7.80603ZM7.80603 23V22H13.806V23H7.80603Z" fill="white"/>
</svg>
