<svg xmlns="http://www.w3.org/2000/svg" width="800" height="250" viewBox="0 0 800 250"><rect width="100%" height="100%" fill="#DDDDDD"/><path fill="#999999" d="M254.935 126h12.57q4.62 0 8.06-1.15 3.44-1.16 5.72-3.32 2.28-2.15 3.4-5.25 1.13-3.09 1.13-6.9 0-3.63-1.13-6.57-1.12-2.93-3.37-5-2.25-2.06-5.69-3.15-3.44-1.1-8.12-1.1h-12.57zm-16.81-45.44h29.38q9.06 0 15.68 2.13 6.63 2.12 10.94 5.94 4.31 3.81 6.41 9.12 2.09 5.31 2.09 11.63 0 6.56-2.19 12.03-2.18 5.47-6.56 9.4-4.37 3.94-10.97 6.13-6.59 2.19-15.4 2.19h-12.57v31.81h-16.81zm90.38-2.5v35.63q3.75-3.5 8.25-5.69t10.56-2.19q5.25 0 9.31 1.79 4.06 1.78 6.78 5 2.72 3.21 4.13 7.68 1.4 4.47 1.4 9.85v40.81h-15.43v-40.81q0-5.88-2.69-9.1t-8.19-3.22q-4 0-7.5 1.82-3.5 1.81-6.62 4.93v46.38h-15.44V78.06zm83.44 27.75q7.12 0 12.96 2.32 5.85 2.31 10 6.56 4.16 4.25 6.41 10.37 2.25 6.13 2.25 13.69 0 7.63-2.25 13.75-2.25 6.13-6.41 10.44-4.15 4.31-10 6.62-5.84 2.32-12.96 2.32-7.19 0-13.07-2.32-5.87-2.31-10.03-6.62t-6.44-10.44q-2.28-6.12-2.28-13.75 0-7.56 2.28-13.69 2.28-6.12 6.44-10.37t10.03-6.56q5.88-2.32 13.07-2.32m0 54.19q8 0 11.84-5.37 3.84-5.38 3.84-15.75 0-10.38-3.84-15.82-3.84-5.43-11.84-5.43-8.13 0-12.04 5.47-3.9 5.46-3.9 15.78 0 10.31 3.9 15.72 3.91 5.4 12.04 5.4m64.81 11.94q-8.38 0-12.85-4.72-4.46-4.72-4.46-13.03v-35.81h-6.57q-1.25 0-2.12-.82-.88-.81-.88-2.43V109l10.32-1.69 3.25-17.5q.31-1.25 1.18-1.93.88-.69 2.25-.69h8v20.19h17.13v11h-17.13v34.75q0 3 1.47 4.68 1.47 1.69 4.03 1.69 1.44 0 2.41-.34.97-.35 1.69-.72.72-.38 1.28-.72t1.12-.34q.69 0 1.13.34t.94 1.03l4.62 7.5q-3.37 2.81-7.75 4.25-4.37 1.44-9.06 1.44m53.5-66.13q7.12 0 12.97 2.32 5.84 2.31 10 6.56 4.15 4.25 6.4 10.37 2.25 6.13 2.25 13.69 0 7.63-2.25 13.75-2.25 6.13-6.4 10.44-4.16 4.31-10 6.62-5.85 2.32-12.97 2.32-7.19 0-13.06-2.32-5.88-2.31-10.04-6.62-4.15-4.31-6.43-10.44-2.28-6.12-2.28-13.75 0-7.56 2.28-13.69 2.28-6.12 6.43-10.37 4.16-4.25 10.04-6.56 5.87-2.32 13.06-2.32m0 54.19q8 0 11.84-5.37 3.85-5.38 3.85-15.75 0-10.38-3.85-15.82-3.84-5.43-11.84-5.43-8.13 0-12.03 5.47-3.91 5.46-3.91 15.78 0 10.31 3.91 15.72 3.9 5.4 12.03 5.4"/></svg>