<svg width="31" height="30" viewBox="0 0 31 30" fill="none" xmlns="http://www.w3.org/2000/svg"> <path fill-rule="evenodd" clip-rule="evenodd" d="M30.8485 0H0.848511V30H30.8485V0ZM11.1815 4.00235C11.7707 2.24939 13.667 1 15.8503 1C18.3513 1 20.0204 2.29521 20.5819 4.35724C20.7367 4.92602 20.885 6.24754 20.5923 7.13521C20.6316 7.14938 20.6692 7.16757 20.7044 7.18955C20.7762 7.23428 20.8364 7.29352 20.8805 7.36292C20.9316 7.45866 20.9607 7.56342 20.9658 7.67039C21.003 8.08876 20.9168 8.50865 20.7167 8.8842C20.6224 9.07409 20.4854 9.24263 20.3151 9.3783C20.1769 9.48343 20.0119 9.55315 19.8363 9.58062L19.7543 9.59253C19.7219 9.70611 19.6863 9.80495 19.6625 9.87074L19.6491 9.9082C19.5018 10.283 18.6396 11.6317 17.5797 12.0062C17.5801 12.0781 17.5821 12.1499 17.5856 12.2217L17.5965 12.2232C17.7782 12.2492 17.811 12.4112 17.8637 12.6717L17.8638 12.6721C17.8692 12.6989 17.8748 12.7267 17.8809 12.7556C17.9532 12.7514 18.0165 12.7579 18.0567 12.7824L18.1004 12.7506C18.1813 12.7125 18.2694 12.6683 18.3619 12.6219L18.3621 12.6218L18.3622 12.6217L18.3622 12.6217C18.7655 12.4193 19.2523 12.1749 19.5879 12.2206C19.9973 12.369 20.1497 13.0973 20.1268 13.5373C20.1275 13.5602 20.1253 13.5831 20.1202 13.6055L20.1471 13.6212C20.3306 13.6668 20.4616 13.8017 20.3372 13.9361C20.278 14.0018 20.2163 14.0654 20.1523 14.1268C20.7375 14.391 21.314 14.6721 21.881 14.9697C21.943 15.0014 22.0049 15.0296 22.0662 15.0575C22.1986 15.1177 22.3278 15.1765 22.4468 15.2656C23.0336 15.6665 23.5882 17.4922 23.9114 18.556L23.9531 18.6933C24.0555 19.0291 24.2146 19.504 24.382 20.0032L24.3821 20.0034C24.6475 20.7953 24.9335 21.6488 25.0463 22.1068C25.0534 22.1355 25.0605 22.164 25.0675 22.1922C25.0738 22.2173 25.08 22.2423 25.0862 22.267C25.2838 23.0569 25.4242 23.6187 24.8003 24.2682C24.4839 24.5983 24.0456 24.8541 23.6668 25.0494L23.6669 25.0495C23.316 25.2303 22.5347 25.6235 21.7751 25.9875C21.6666 26.0395 21.5585 26.0909 21.4522 26.141C21.4852 26.3707 21.5183 26.599 21.5505 26.8209L21.5507 26.8221L21.5507 26.8223L21.5508 26.8228L21.5508 26.8229C21.6586 27.567 21.7561 28.2389 21.805 28.6486C20.9123 28.8605 19.5162 28.9992 18.3456 29C17.8934 29.0004 17.1709 28.9535 16.84 28.7674C16.6915 28.6347 16.6142 28.3505 16.5526 28.0805C16.2824 28.1964 16.0573 28.2859 15.9346 28.3299C15.7611 28.3908 15.5807 28.4325 15.3969 28.4541C15.2534 28.4687 15.1289 28.4085 15.071 28.3295L15.0585 28.3586C14.9874 28.5059 14.8659 28.6267 14.7132 28.7017C14.5706 28.7655 14.4153 28.8004 14.2573 28.8044C13.1236 28.8994 11.4828 28.8234 10.2558 28.674C10.3042 28.2651 10.4041 27.5764 10.5149 26.8126L10.515 26.8125L10.515 26.812C10.5467 26.5936 10.5793 26.369 10.6118 26.143C10.3634 26.0261 10.1051 25.9019 9.85424 25.7795L9.79248 25.7493C9.28664 25.5023 8.81579 25.2658 8.51989 25.1146L8.39307 25.0496C8.01419 24.8539 7.57582 24.598 7.25925 24.2682C6.6353 23.6184 6.77612 23.0564 6.97422 22.266L6.97425 22.2658L6.97443 22.2651C6.9874 22.2133 7.00062 22.1606 7.01389 22.1068C7.12661 21.6493 7.41213 20.7973 7.67724 20.0062L7.67726 20.0061L7.67728 20.0061L7.67732 20.0059C7.84497 19.5056 8.00445 19.0297 8.10693 18.6933L8.14935 18.5538C8.48237 17.458 9.06025 15.5564 9.66577 15.234C9.7728 15.1662 9.89324 15.1095 10.0112 15.0541L10.0112 15.0541C10.0704 15.0262 10.129 14.9987 10.1849 14.9702C10.998 14.5556 11.7284 14.1943 12.57 13.8366C12.9252 13.5116 13.2985 13.2357 13.4295 13.2297C13.4586 13.3213 13.4887 13.4237 13.5215 13.5374L13.5217 13.5374C13.4889 13.4238 13.4588 13.3217 13.4298 13.2302L13.63 13.2278C13.6783 13.096 13.7285 12.9741 13.7782 12.8536L13.7782 12.8536L13.7782 12.8536L13.7782 12.8536L13.7782 12.8535L13.7782 12.8535L13.7782 12.8535L13.7782 12.8535L13.7782 12.8535C13.8271 12.7347 13.8755 12.6173 13.921 12.493C13.9361 12.4441 13.9686 12.4015 14.0131 12.3723C14.0303 12.3609 14.049 12.3519 14.0686 12.3452C14.0775 12.2268 14.0819 12.1081 14.0819 11.9893C13.5827 12.5374 12.4235 12.7517 11.6684 12.3304C11.0019 11.9587 10.6568 11.1574 10.7585 10.423C10.7889 10.2179 10.8591 10.0197 10.9659 9.83834C11.0953 9.62861 11.2923 9.45601 11.5813 9.46766C11.5326 9.44167 11.4861 9.41191 11.4423 9.3786C11.272 9.2429 11.135 9.07433 11.0407 8.88443C10.8406 8.50887 10.7544 8.08898 10.7915 7.67062C10.7966 7.56358 10.8257 7.45875 10.8769 7.36292C10.921 7.29354 10.9812 7.2343 11.0529 7.18958C11.1217 7.14673 11.1994 7.11823 11.2808 7.10597L11.2915 7.10446C11.3055 7.10255 11.3194 7.10109 11.3334 7.10009C11.3194 7.10107 11.3053 7.1025 11.2913 7.10439L11.2808 7.10597L11.2757 7.10674L11.0815 6.47624C10.8873 6.06324 10.9277 5.06876 11.0734 4.3935C11.1021 4.26144 11.1382 4.13087 11.1815 4.00235ZM15.8364 19.3743C15.8741 19.4522 15.9098 19.5254 15.9434 19.5933L15.9567 19.6202L15.9436 19.5937C15.91 19.5257 15.8742 19.4524 15.8364 19.3743ZM20.4656 7.10439L20.4718 7.10528L20.4658 7.10446L20.448 7.10227L20.4656 7.10439ZM20.0743 7.17312C20.1252 7.14626 20.1796 7.12647 20.2357 7.11405C20.2257 7.11628 20.2157 7.11876 20.2058 7.12147C20.1215 7.1446 20.0435 7.18452 19.9771 7.23851C19.9771 7.23851 19.9735 7.19122 19.9602 7.10805C19.9979 7.13013 20.036 7.15182 20.0743 7.17312ZM11.7411 7.12806C11.7527 7.127 11.7688 7.12449 11.789 7.12058C11.7813 7.19596 11.7802 7.23851 11.7802 7.23851C11.7182 7.18807 11.646 7.1499 11.568 7.12624C11.5818 7.13038 11.5954 7.13498 11.6089 7.14004L11.7411 7.12806ZM10.0214 22.5153C10.2487 22.655 10.5998 22.8595 10.9834 23.0702C10.9861 23.0117 10.9837 22.9526 10.977 22.8944C10.8764 22.2571 10.7698 21.6081 10.6634 20.9674C10.6039 21.0824 10.5462 21.1969 10.4914 21.3088C10.2489 21.8028 10.0613 22.2464 10.0257 22.4866L10.0214 22.5153ZM21.0884 22.8938C21.0814 22.9517 21.0793 23.01 21.082 23.0682C21.4636 22.8579 21.8125 22.6541 22.0392 22.5149L22.0349 22.4862C22 22.2502 21.8179 21.8173 21.5812 21.3331C21.5238 21.2157 21.4632 21.0954 21.4007 20.974C21.2946 21.6124 21.1885 22.2588 21.0884 22.8938Z" fill="white"/> </svg>