<svg width="14" height="15" viewBox="0 0 14 15" fill="none" xmlns="http://www.w3.org/2000/svg">
    <path d="M10.1191 0.59082C11.0556 0.590891 11.8159 1.4025 11.8291 2.4082H2.13379C1.87744 2.4082 1.66895 2.63209 1.66895 2.90918C1.66911 3.18521 1.87754 3.40918 2.13379 3.40918H11.8301V3.41699C12.7083 3.495 13.3984 4.28642 13.3984 5.25195V7.57031H10.4062C9.40619 7.57095 8.59655 8.44456 8.5957 9.52246C8.59663 10.5993 9.40624 11.4725 10.4062 11.4727H13.3984V12.748C13.3984 13.7656 12.633 14.5907 11.6885 14.5908H2.7373C1.22575 14.5908 8.50857e-05 13.271 0 11.6426V3.40918H0.00683594C0.0705009 1.84143 1.26672 0.59082 2.7373 0.59082H10.1191ZM13.7393 8.31445C13.8832 8.31445 14 8.44013 14 8.5957V10.4492C13.9999 10.6042 13.8832 10.7305 13.7393 10.7305H10.4062C10.0958 10.7299 9.81801 10.5955 9.61426 10.376C9.41089 10.1564 9.28518 9.8566 9.28516 9.52246C9.28516 9.18737 9.41087 8.88752 9.61426 8.66797C9.81799 8.44907 10.0958 8.31451 10.4062 8.31445H13.7393ZM10.4258 9.11914C10.2194 9.11914 10.0527 9.29967 10.0527 9.52246C10.0528 9.74427 10.2194 9.9248 10.4258 9.9248C10.6321 9.92474 10.7998 9.74423 10.7998 9.52246C10.7998 9.29971 10.6321 9.11921 10.4258 9.11914Z"
          fill="black"/>
</svg>
