<svg width="51" height="50" viewBox="0 0 51 50" fill="none" xmlns="http://www.w3.org/2000/svg">
    <path d="M50.7586 25.0033C50.7586 18.372 48.1243 12.0123 43.4353 7.3233C38.7463 2.63428 32.3866 1.06742e-05 25.7553 1.06742e-05C19.4593 -0.0058036 13.3928 2.36386 8.7677 6.63566C4.14258 10.9075 1.29932 16.7669 0.805846 23.0436C0.312374 29.3202 2.20502 35.552 6.10574 40.4941C10.0065 45.4362 15.6281 48.7248 21.8476 49.703V32.2292H15.504V25.0033H21.8512V19.4954C21.8512 13.2303 25.5839 9.76558 31.2953 9.76558C34.0314 9.76558 36.8925 10.2549 36.8925 10.2549V16.4093H33.7385C30.6309 16.4093 29.6665 18.3381 29.6665 20.3134V25.0033H36.5996L35.4923 32.2292H29.663V49.703C35.5441 48.7717 40.8999 45.7724 44.767 41.2446C48.6342 36.7168 50.7587 30.9577 50.7586 25.0033Z" fill="#8BB174"/>
    <path d="M35.4883 32.2294L36.5956 25.0035H29.6625V20.3136C29.6625 18.3383 30.627 16.4095 33.7345 16.4095H36.8885V10.2516C36.8885 10.2516 34.0274 9.76221 31.2913 9.76221C25.5763 9.76221 21.8472 13.2269 21.8472 19.4921V25.0035H15.5035V32.2294H21.8508V49.7032C24.44 50.1106 27.0769 50.1106 29.6661 49.7032V32.2294H35.4883Z" fill="#574545"/>
</svg>
