<svg width="50" height="50" viewBox="0 0 50 50" fill="none" xmlns="http://www.w3.org/2000/svg">
    <path d="M24.9679 49.7479C38.6336 49.7479 49.7118 38.6697 49.7118 25.0041C49.7118 11.3384 38.6336 0.260254 24.9679 0.260254C11.3023 0.260254 0.224121 11.3384 0.224121 25.0041C0.224121 38.6697 11.3023 49.7479 24.9679 49.7479Z" fill="#8BB174"/>
    <path d="M24.9676 12.8328C28.9317 12.8328 29.4014 12.8479 30.9668 12.9192C32.4143 12.9853 33.2004 13.2272 33.7236 13.4305C34.4166 13.6998 34.9111 14.0215 35.4306 14.541C35.9502 15.0606 36.2718 15.5551 36.5412 16.248C36.7444 16.7712 36.9863 17.5574 37.0524 19.0047C37.1238 20.5703 37.1389 21.0398 37.1389 25.0039C37.1389 28.9681 37.1238 29.4376 37.0524 31.0031C36.9863 32.4507 36.7444 33.2366 36.5412 33.7599C36.2718 34.4528 35.9502 34.9474 35.4307 35.4669C34.9111 35.9864 34.4166 36.3081 33.7236 36.5774C33.2004 36.7808 32.4143 37.0226 30.9668 37.0886C29.4016 37.16 28.9321 37.1752 24.9676 37.1752C21.0032 37.1752 20.5338 37.16 18.9685 37.0886C17.521 37.0226 16.7349 36.7808 16.2117 36.5774C15.5187 36.3081 15.0242 35.9864 14.5047 35.4669C13.9852 34.9474 13.6634 34.4528 13.3941 33.7599C13.1908 33.2366 12.9489 32.4507 12.8829 31.0031C12.8115 29.4376 12.7964 28.9681 12.7964 25.0039C12.7964 21.0398 12.8115 20.5703 12.8829 19.0047C12.9489 17.5574 13.1908 16.7712 13.3941 16.248C13.6634 15.5551 13.9851 15.0606 14.5047 14.5411C15.0242 14.0215 15.5187 13.6998 16.2117 13.4305C16.7349 13.2272 17.521 12.9853 18.9685 12.9192C20.5339 12.8479 21.0035 12.8328 24.9676 12.8328ZM24.9676 10.1577C20.9356 10.1577 20.43 10.1748 18.8465 10.247C17.2664 10.3192 16.187 10.5701 15.2427 10.9371C14.2664 11.3165 13.4385 11.8241 12.6132 12.6495C11.7877 13.4749 11.2801 14.3028 10.9008 15.2791C10.5337 16.2234 10.2828 17.3026 10.2107 18.8829C10.1384 20.4664 10.1213 20.972 10.1213 25.0039C10.1213 29.036 10.1384 29.5415 10.2107 31.125C10.2828 32.7053 10.5337 33.7845 10.9008 34.7288C11.2801 35.7051 11.7877 36.533 12.6132 37.3585C13.4385 38.1838 14.2664 38.6914 15.2427 39.0707C16.187 39.4378 17.2664 39.6887 18.8465 39.7608C20.43 39.8331 20.9356 39.8502 24.9676 39.8502C28.9996 39.8502 29.5053 39.8331 31.0888 39.7608C32.6689 39.6887 33.7482 39.4378 34.6926 39.0707C35.6688 38.6914 36.4968 38.1838 37.3221 37.3585C38.1474 36.533 38.6552 35.7051 39.0345 34.7288C39.4016 33.7845 39.6525 32.7053 39.7246 31.125C39.7969 29.5415 39.8139 29.036 39.8139 25.0039C39.8139 20.972 39.7969 20.4664 39.7246 18.8829C39.6525 17.3026 39.4016 16.2234 39.0345 15.2791C38.6552 14.3028 38.1474 13.4749 37.3221 12.6495C36.4968 11.8241 35.6688 11.3165 34.6926 10.9371C33.7482 10.5701 32.6689 10.3192 31.0888 10.247C29.5053 10.1748 28.9996 10.1577 24.9676 10.1577Z" fill="#574545"/>
    <path d="M24.9756 17.3872C20.7651 17.3872 17.3519 20.8004 17.3519 25.0109C17.3519 29.2214 20.7651 32.6346 24.9756 32.6346C29.1862 32.6346 32.5994 29.2214 32.5994 25.0109C32.5994 20.8004 29.1862 17.3872 24.9756 17.3872ZM24.9756 29.9597C22.2425 29.9597 20.0269 27.744 20.0269 25.0109C20.0269 22.2778 22.2425 20.0621 24.9756 20.0621C27.7088 20.0621 29.9244 22.2778 29.9244 25.0109C29.9244 27.744 27.7088 29.9597 24.9756 29.9597Z" fill="#574545"/>
    <path d="M34.681 17.0815C34.681 18.0653 33.8834 18.863 32.8995 18.863C31.9155 18.863 31.1179 18.0653 31.1179 17.0815C31.1179 16.0975 31.9155 15.2998 32.8995 15.2998C33.8834 15.2998 34.681 16.0975 34.681 17.0815Z" fill="#574545"/>
</svg>
