<svg width="51" height="50" viewBox="0 0 51 50" fill="none" xmlns="http://www.w3.org/2000/svg">
    <circle cx="25.7158" cy="25.0045" r="23.4415" fill="#574545"/>
    <path d="M25.74 20.7234C28.1276 20.7147 30.0292 18.7967 30.0205 16.404C30.0118 14.0102 28.1061 12.1056 25.7175 12.1035C23.3089 12.101 21.3853 14.0409 21.4037 16.4562C21.4216 18.8402 23.3447 20.7321 25.74 20.7234Z" fill="#8BB174"/>
    <path d="M25.7161 0C11.9065 0 0.711792 11.1953 0.711792 25.0043C0.711792 38.8133 11.9065 50.0086 25.7161 50.0086C39.5256 50.0086 50.7204 38.8133 50.7204 25.0043C50.7204 11.1953 39.5256 0 25.7161 0ZM25.7519 7.60386C30.6223 7.61716 34.5314 11.601 34.5063 16.5251C34.4818 21.3356 30.5087 25.2345 25.6465 25.2181C20.8339 25.2018 16.8869 21.2118 16.9156 16.3916C16.9427 11.5186 20.8917 7.59056 25.7519 7.60386ZM35.6165 28.6786C34.5396 29.7841 33.2432 30.5843 31.8036 31.1424C30.4427 31.6699 28.9514 31.9354 27.4749 32.1124C27.6985 32.3549 27.8034 32.4741 27.9425 32.6133C29.946 34.6274 31.9591 36.6313 33.9558 38.6511C34.6363 39.3397 34.778 40.1931 34.4035 40.9927C33.9947 41.8675 33.0774 42.4426 32.1775 42.3807C31.6076 42.3413 31.163 42.0584 30.7686 41.6608C29.2563 40.1394 27.7154 38.645 26.2348 37.0948C25.8025 36.6436 25.5958 36.7296 25.2147 37.1214C23.6937 38.688 22.1477 40.2294 20.5929 41.7627C19.8946 42.4513 19.0638 42.5761 18.2534 42.1822C17.3924 41.7657 16.845 40.8863 16.8869 40.0017C16.9166 39.4052 17.2103 38.9478 17.6206 38.5396C19.604 36.5602 21.5814 34.5747 23.5592 32.5907C23.6907 32.4593 23.8124 32.3196 24.0032 32.115C21.3056 31.8331 18.873 31.169 16.7902 29.5406C16.5314 29.338 16.2648 29.1426 16.0295 28.9154C15.1173 28.0401 15.0258 27.0369 15.7466 26.0045C16.3641 25.1204 17.3996 24.8841 18.4765 25.3921C18.6852 25.4898 18.8837 25.6136 19.074 25.7446C22.955 28.4115 28.2868 28.4847 32.1832 25.8638C32.5689 25.5691 32.9818 25.3266 33.4601 25.2043C34.3892 24.9649 35.2568 25.3071 35.7551 26.1206C36.3256 27.0502 36.3189 27.9567 35.6165 28.6786Z" fill="#8BB174"/>
</svg>
