<svg width="51" height="50" viewBox="0 0 51 50" fill="none" xmlns="http://www.w3.org/2000/svg">
    <path d="M25.7246 0C11.915 0 0.720337 11.1947 0.720337 25.0043C0.720337 38.8139 11.915 50.0086 25.7246 50.0086C39.5342 50.0086 50.7289 38.8139 50.7289 25.0043C50.7289 11.1947 39.5342 0 25.7246 0Z" fill="#8BB174"/>
    <path d="M37.8922 14.3836L33.4262 36.9006C33.4262 36.9006 32.8017 38.4622 31.084 37.7126L20.778 29.8113L17.0304 28L10.7219 25.8762C10.7219 25.8762 9.75381 25.5328 9.66004 24.7833C9.56647 24.0337 10.7532 23.6278 10.7532 23.6278L35.8309 13.7902C35.8309 13.7902 37.8922 12.8845 37.8922 14.3836Z" fill="#574545"/>
    <path d="M19.9855 36.6476C19.9855 36.6476 19.6847 36.6195 19.3098 35.4326C18.9352 34.2458 17.0302 27.9998 17.0302 27.9998L32.1767 18.381C32.1767 18.381 33.0513 17.85 33.02 18.381C33.02 18.381 33.1761 18.4746 32.7076 18.9118C32.2392 19.3491 20.8089 29.6237 20.8089 29.6237" fill="#574545"/>
    <path d="M24.7285 32.8405L20.652 36.5571C20.652 36.5571 20.3334 36.799 19.9847 36.6474L20.7653 29.7437" fill="#574545"/>
</svg>
