<svg width="51" height="50" viewBox="0 0 51 50" fill="none" xmlns="http://www.w3.org/2000/svg">
    <path d="M25.7714 50.0086C39.5809 50.0086 50.7757 38.8138 50.7757 25.0043C50.7757 11.1948 39.5809 0 25.7714 0C11.9619 0 0.76709 11.1948 0.76709 25.0043C0.76709 38.8138 11.9619 50.0086 25.7714 50.0086Z" fill="#8BB174"/>
    <path d="M30.2159 10.5283H21.328C13.2165 10.5283 11.2958 12.449 11.2958 20.5605V29.4485C11.2958 37.5599 13.2165 39.4806 21.328 39.4806H30.2159C38.3274 39.4806 40.2481 37.5599 40.2481 29.4485V20.5605C40.2481 12.449 38.3069 10.5283 30.2159 10.5283ZM34.6701 31.185H32.5634C31.7665 31.185 31.5215 30.5518 30.0913 29.1011C28.8447 27.8973 28.2934 27.7324 27.9846 27.7324C27.5554 27.7324 27.4326 27.8528 27.4326 28.4475V30.3477C27.4326 30.8588 27.2689 31.1651 25.9206 31.1651C23.6935 31.1651 21.2214 29.8168 19.4843 27.3032C16.8689 23.6255 16.1539 20.8669 16.1539 20.2951C16.1539 19.9887 16.2743 19.7028 16.8689 19.7028H18.9757C19.5072 19.7028 19.7112 19.9478 19.9153 20.5202C20.9572 23.5238 22.6943 26.1596 23.4064 26.1596C23.6718 26.1596 23.7946 26.0392 23.7946 25.3626V22.2567C23.7128 20.8266 22.9568 20.7038 22.9568 20.1933C22.9568 19.9484 23.1608 19.7028 23.4883 19.7028H26.7988C27.2484 19.7028 27.4116 19.9478 27.4116 20.4793V24.6674C27.4116 25.117 27.6156 25.2802 27.7384 25.2802C28.0039 25.2802 28.229 25.1164 28.7189 24.6265C30.231 22.9309 31.3138 20.3155 31.3138 20.3155C31.4571 20.0092 31.702 19.7232 32.2335 19.7232H34.3403C34.9735 19.7232 35.1167 20.0501 34.9735 20.4997C34.708 21.7258 32.1336 25.3626 32.1336 25.3626C31.9091 25.7304 31.8272 25.8941 32.1336 26.3022C32.3581 26.6086 33.0967 27.2418 33.5843 27.8142C34.4835 28.8375 35.1781 29.694 35.3617 30.2863C35.5694 30.8786 35.2624 31.185 34.6701 31.185Z" fill="#574545"/>
</svg>
