<svg width="51" height="50" viewBox="0 0 51 50" fill="none" xmlns="http://www.w3.org/2000/svg">
    <path d="M25.7628 50.0086C39.5723 50.0086 50.7671 38.8138 50.7671 25.0043C50.7671 11.1948 39.5723 0 25.7628 0C11.9533 0 0.758545 11.1948 0.758545 25.0043C0.758545 38.8138 11.9533 50.0086 25.7628 50.0086Z" fill="#8BB174"/>
    <path fill-rule="evenodd" clip-rule="evenodd" d="M39.8901 15.4754C40.3891 15.9743 40.7486 16.5953 40.9329 17.2764C41.9942 21.5484 41.7489 28.2954 40.9536 32.7323C40.7693 33.4134 40.4097 34.0344 39.9107 34.5334C39.4118 35.0323 38.7908 35.3919 38.1097 35.5762C35.6161 36.2563 25.58 36.2563 25.58 36.2563C25.58 36.2563 15.5439 36.2563 13.0504 35.5762C12.3693 35.3919 11.7483 35.0323 11.2493 34.5334C10.7504 34.0344 10.3908 33.4134 10.2065 32.7323C9.13898 28.4788 9.43165 21.7277 10.1859 17.297C10.3702 16.6158 10.7297 15.9948 11.2287 15.4959C11.7277 14.9969 12.3487 14.6375 13.0298 14.4531C15.5233 13.7731 25.5594 13.7524 25.5594 13.7524C25.5594 13.7524 35.5955 13.7524 38.0891 14.4326C38.7702 14.6168 39.3912 14.9764 39.8901 15.4754ZM30.6908 25.0044L22.3652 29.8266V20.182L30.6908 25.0044Z" fill="#574545"/>
</svg>
